  0
SECTION
  2
HEADER
  9
$ACADVER
  1
AC1024
  9
$ACADMAINTVER
 70
     6
  9
$DWGCODEPAGE
  3
ANSI_1252
  9
$LASTSAVEDBY
  1
mehme
  9
$INSBASE
 10
0.0
 20
0.0
 30
0.0
  9
$EXTMIN
 10
403109.4814717314
 20
4592244.26723972
 30
-81.9460678100586
  9
$EXTMAX
 10
403623.8622633271
 20
4592473.541298385
 30
56.54635620117188
  9
$LIMMIN
 10
0.0
 20
0.0
  9
$LIMMAX
 10
420.0
 20
297.0
  9
$ORTHOMODE
 70
     0
  9
$REGENMODE
 70
     1
  9
$FILLMODE
 70
     1
  9
$QTEXTMODE
 70
     0
  9
$MIRRTEXT
 70
     1
  9
$LTSCALE
 40
1.0
  9
$ATTMODE
 70
     1
  9
$TEXTSIZE
 40
2.5
  9
$TRACEWID
 40
1.0
  9
$TEXTSTYLE
  7
Standard
  9
$CLAYER
  8
INIT_COORD
  9
$CELTYPE
  6
ByLayer
  9
$CECOLOR
 62
     3
  9
$CELTSCALE
 40
1.0
  9
$DISPSILH
 70
     0
  9
$DIMSCALE
 40
1.0
  9
$DIMASZ
 40
2.5
  9
$DIMEXO
 40
0.625
  9
$DIMDLI
 40
3.75
  9
$DIMRND
 40
0.0
  9
$DIMDLE
 40
0.0
  9
$DIMEXE
 40
1.25
  9
$DIMTP
 40
0.0
  9
$DIMTM
 40
0.0
  9
$DIMTXT
 40
2.5
  9
$DIMCEN
 40
2.5
  9
$DIMTSZ
 40
0.0
  9
$DIMTOL
 70
     0
  9
$DIMLIM
 70
     0
  9
$DIMTIH
 70
     0
  9
$DIMTOH
 70
     0
  9
$DIMSE1
 70
     0
  9
$DIMSE2
 70
     0
  9
$DIMTAD
 70
     1
  9
$DIMZIN
 70
     8
  9
$DIMBLK
  1

  9
$DIMASO
 70
     1
  9
$DIMSHO
 70
     1
  9
$DIMPOST
  1

  9
$DIMAPOST
  1

  9
$DIMALT
 70
     0
  9
$DIMALTD
 70
     3
  9
$DIMALTF
 40
0.03937007874016
  9
$DIMLFAC
 40
1.0
  9
$DIMTOFL
 70
     1
  9
$DIMTVP
 40
0.0
  9
$DIMTIX
 70
     0
  9
$DIMSOXD
 70
     0
  9
$DIMSAH
 70
     0
  9
$DIMBLK1
  1

  9
$DIMBLK2
  1

  9
$DIMSTYLE
  2
ISO-25
  9
$DIMCLRD
 70
     0
  9
$DIMCLRE
 70
     0
  9
$DIMCLRT
 70
     0
  9
$DIMTFAC
 40
1.0
  9
$DIMGAP
 40
0.625
  9
$DIMJUST
 70
     0
  9
$DIMSD1
 70
     0
  9
$DIMSD2
 70
     0
  9
$DIMTOLJ
 70
     0
  9
$DIMTZIN
 70
     8
  9
$DIMALTZ
 70
     0
  9
$DIMALTTZ
 70
     0
  9
$DIMUPT
 70
     0
  9
$DIMDEC
 70
     2
  9
$DIMTDEC
 70
     2
  9
$DIMALTU
 70
     2
  9
$DIMALTTD
 70
     3
  9
$DIMTXSTY
  7
Standard
  9
$DIMAUNIT
 70
     0
  9
$DIMADEC
 70
     0
  9
$DIMALTRND
 40
0.0
  9
$DIMAZIN
 70
     0
  9
$DIMDSEP
 70
    44
  9
$DIMATFIT
 70
     3
  9
$DIMFRAC
 70
     0
  9
$DIMLDRBLK
  1

  9
$DIMLUNIT
 70
     2
  9
$DIMLWD
 70
    -2
  9
$DIMLWE
 70
    -2
  9
$DIMTMOVE
 70
     0
  9
$DIMFXL
 40
1.0
  9
$DIMFXLON
 70
     0
  9
$DIMJOGANG
 40
0.7853981633974483
  9
$DIMTFILL
 70
     0
  9
$DIMTFILLCLR
 70
     0
  9
$DIMARCSYM
 70
     0
  9
$DIMLTYPE
  6

  9
$DIMLTEX1
  6

  9
$DIMLTEX2
  6

  9
$DIMTXTDIRECTION
 70
     0
  9
$LUNITS
 70
     2
  9
$LUPREC
 70
     4
  9
$SKETCHINC
 40
1.0
  9
$FILLETRAD
 40
10.0
  9
$AUNITS
 70
     0
  9
$AUPREC
 70
     0
  9
$MENU
  1
.
  9
$ELEVATION
 40
0.0
  9
$PELEVATION
 40
0.0
  9
$THICKNESS
 40
0.0
  9
$LIMCHECK
 70
     0
  9
$CHAMFERA
 40
10.0
  9
$CHAMFERB
 40
10.0
  9
$CHAMFERC
 40
20.0
  9
$CHAMFERD
 40
0.0
  9
$SKPOLY
 70
     0
  9
$TDCREATE
 40
2457892.44494191
  9
$TDUCREATE
 40
2457892.31994191
  9
$TDUPDATE
 40
2457893.390959907
  9
$TDUUPDATE
 40
2457893.265959907
  9
$TDINDWG
 40
0.0011133333
  9
$TDUSRTIMER
 40
2457893.238058762
  9
$USRTIMER
 70
     1
  9
$ANGBASE
 50
0.0
  9
$ANGDIR
 70
     0
  9
$PDMODE
 70
     0
  9
$PDSIZE
 40
0.0
  9
$PLINEWID
 40
0.0
  9
$SPLFRAME
 70
     0
  9
$SPLINETYPE
 70
     6
  9
$SPLINESEGS
 70
     8
  9
$HANDSEED
  5
376
  9
$SURFTAB1
 70
     6
  9
$SURFTAB2
 70
     6
  9
$SURFTYPE
 70
     6
  9
$SURFU
 70
     6
  9
$SURFV
 70
     6
  9
$UCSBASE
  2

  9
$UCSNAME
  2

  9
$UCSORG
 10
0.0
 20
0.0
 30
0.0
  9
$UCSXDIR
 10
1.0
 20
0.0
 30
0.0
  9
$UCSYDIR
 10
0.0
 20
1.0
 30
0.0
  9
$UCSORTHOREF
  2

  9
$UCSORTHOVIEW
 70
     1
  9
$UCSORGTOP
 10
0.0
 20
0.0
 30
0.0
  9
$UCSORGBOTTOM
 10
0.0
 20
0.0
 30
0.0
  9
$UCSORGLEFT
 10
0.0
 20
0.0
 30
0.0
  9
$UCSORGRIGHT
 10
0.0
 20
0.0
 30
0.0
  9
$UCSORGFRONT
 10
0.0
 20
0.0
 30
0.0
  9
$UCSORGBACK
 10
0.0
 20
0.0
 30
0.0
  9
$PUCSBASE
  2

  9
$PUCSNAME
  2

  9
$PUCSORG
 10
0.0
 20
0.0
 30
0.0
  9
$PUCSXDIR
 10
1.0
 20
0.0
 30
0.0
  9
$PUCSYDIR
 10
0.0
 20
1.0
 30
0.0
  9
$PUCSORTHOREF
  2

  9
$PUCSORTHOVIEW
 70
     0
  9
$PUCSORGTOP
 10
0.0
 20
0.0
 30
0.0
  9
$PUCSORGBOTTOM
 10
0.0
 20
0.0
 30
0.0
  9
$PUCSORGLEFT
 10
0.0
 20
0.0
 30
0.0
  9
$PUCSORGRIGHT
 10
0.0
 20
0.0
 30
0.0
  9
$PUCSORGFRONT
 10
0.0
 20
0.0
 30
0.0
  9
$PUCSORGBACK
 10
0.0
 20
0.0
 30
0.0
  9
$USERI1
 70
     0
  9
$USERI2
 70
     0
  9
$USERI3
 70
     0
  9
$USERI4
 70
     0
  9
$USERI5
 70
     0
  9
$USERR1
 40
0.0
  9
$USERR2
 40
0.0
  9
$USERR3
 40
0.0
  9
$USERR4
 40
0.0
  9
$USERR5
 40
0.0
  9
$WORLDVIEW
 70
     1
  9
$SHADEDGE
 70
     3
  9
$SHADEDIF
 70
    70
  9
$TILEMODE
 70
     1
  9
$MAXACTVP
 70
    64
  9
$PINSBASE
 10
0.0
 20
0.0
 30
0.0
  9
$PLIMCHECK
 70
     0
  9
$PEXTMIN
 10
1.000000000000000E+20
 20
1.000000000000000E+20
 30
1.000000000000000E+20
  9
$PEXTMAX
 10
-1.000000000000000E+20
 20
-1.000000000000000E+20
 30
-1.000000000000000E+20
  9
$PLIMMIN
 10
0.0
 20
0.0
  9
$PLIMMAX
 10
0.0
 20
0.0
  9
$UNITMODE
 70
     0
  9
$VISRETAIN
 70
     1
  9
$PLINEGEN
 70
     0
  9
$PSLTSCALE
 70
     1
  9
$TREEDEPTH
 70
  3020
  9
$CMLSTYLE
  2
Standard
  9
$CMLJUST
 70
     0
  9
$CMLSCALE
 40
20.0
  9
$PROXYGRAPHICS
 70
     1
  9
$MEASUREMENT
 70
     1
  9
$CELWEIGHT
370
    -1
  9
$ENDCAPS
280
     0
  9
$JOINSTYLE
280
     0
  9
$LWDISPLAY
290
     0
  9
$INSUNITS
 70
     4
  9
$HYPERLINKBASE
  1

  9
$STYLESHEET
  1

  9
$XEDIT
290
     1
  9
$CEPSNTYPE
380
     0
  9
$PSTYLEMODE
290
     1
  9
$FINGERPRINTGUID
  2
{8D08717B-2871-4671-9D98-45B85F6F18D8}
  9
$VERSIONGUID
  2
{FAEB1C32-E019-11D5-929B-00C0DF256EC4}
  9
$EXTNAMES
290
     1
  9
$PSVPSCALE
 40
0.0
  9
$OLESTARTUP
290
     0
  9
$SORTENTS
280
   127
  9
$INDEXCTL
280
     0
  9
$HIDETEXT
280
     1
  9
$XCLIPFRAME
280
     2
  9
$HALOGAP
280
     0
  9
$OBSCOLOR
 70
   257
  9
$OBSLTYPE
280
     0
  9
$INTERSECTIONDISPLAY
280
     0
  9
$INTERSECTIONCOLOR
 70
   257
  9
$DIMASSOC
280
     2
  9
$PROJECTNAME
  1

  9
$CAMERADISPLAY
290
     0
  9
$LENSLENGTH
 40
50.0
  9
$CAMERAHEIGHT
 40
0.0
  9
$STEPSPERSEC
 40
2.0
  9
$STEPSIZE
 40
6.0
  9
$3DDWFPREC
 40
2.0
  9
$PSOLWIDTH
 40
5.0
  9
$PSOLHEIGHT
 40
80.0
  9
$LOFTANG1
 40
1.570796326794897
  9
$LOFTANG2
 40
1.570796326794897
  9
$LOFTMAG1
 40
0.0
  9
$LOFTMAG2
 40
0.0
  9
$LOFTPARAM
 70
     7
  9
$LOFTNORMALS
280
     1
  9
$LATITUDE
 40
37.795
  9
$LONGITUDE
 40
-122.394
  9
$NORTHDIRECTION
 40
0.0
  9
$TIMEZONE
 70
 -8000
  9
$LIGHTGLYPHDISPLAY
280
     1
  9
$TILEMODELIGHTSYNCH
280
     1
  9
$SOLIDHIST
280
     1
  9
$SHOWHIST
280
     1
  9
$DWFFRAME
280
     2
  9
$DGNFRAME
280
     2
  9
$REALWORLDSCALE
290
     1
  9
$INTERFERECOLOR
 62
   256
  9
$CSHADOW
280
     0
  9
$SHADOWPLANELOCATION
 40
0.0
  0
ENDSEC
  0
SECTION
  2
CLASSES
  0
CLASS
  1
ACDBDICTIONARYWDFLT
  2
AcDbDictionaryWithDefault
  3
ObjectDBX Classes
 90
        0
 91
        4
280
     0
281
     0
  0
CLASS
  1
VISUALSTYLE
  2
AcDbVisualStyle
  3
ObjectDBX Classes
 90
     4095
 91
        4
280
     0
281
     0
  0
CLASS
  1
MATERIAL
  2
AcDbMaterial
  3
ObjectDBX Classes
 90
     1153
 91
        4
280
     0
281
     0
  0
CLASS
  1
SCALE
  2
AcDbScale
  3
ObjectDBX Classes
 90
     1153
 91
        4
280
     0
281
     0
  0
CLASS
  1
DICTIONARYVAR
  2
AcDbDictionaryVar
  3
ObjectDBX Classes
 90
        0
 91
        4
280
     0
281
     0
  0
CLASS
  1
TABLESTYLE
  2
AcDbTableStyle
  3
ObjectDBX Classes
 90
     4095
 91
        4
280
     0
281
     0
  0
CLASS
  1
MLEADERSTYLE
  2
AcDbMLeaderStyle
  3
ACDB_MLEADERSTYLE_CLASS
 90
     4095
 91
        4
280
     0
281
     0
  0
CLASS
  1
SUN
  2
AcDbSun
  3
SCENEOE
 90
     1153
 91
        4
280
     0
281
     0
  0
CLASS
  1
RASTERVARIABLES
  2
AcDbRasterVariables
  3
ISM
 90
        0
 91
        4
280
     0
281
     0
  0
CLASS
  1
CELLSTYLEMAP
  2
AcDbCellStyleMap
  3
ObjectDBX Classes
 90
     1152
 91
        4
280
     0
281
     0
  0
ENDSEC
  0
SECTION
  2
TABLES
  0
TABLE
  2
VPORT
  5
8
330
0
100
AcDbSymbolTable
 70
     1
  0
VPORT
  5
29
330
8
100
AcDbSymbolTableRecord
100
AcDbViewportTableRecord
  2
*Active
 70
     0
 10
0.0
 20
0.0
 11
1.0
 21
1.0
 12
621597.0454054708
 22
-3337231.165283464
 13
0.0
 23
0.0
 14
10.0
 24
10.0
 15
10.0
 25
10.0
 16
0.0
 26
0.0
 36
1.0
 17
-218352.7613175092
 27
7929520.906231715
 37
3119780.686505739
 40
142.5522093011921
 41
1.884433962264151
 42
50.0
 43
0.0
 44
0.0
 50
0.0
 51
0.0
 71
    16
 72
   100
 73
     1
 74
     3
 75
     0
 76
     0
 77
     0
 78
     0
281
     0
 65
     1
110
0.0
120
0.0
130
0.0
111
1.0
121
0.0
131
0.0
112
0.0
122
1.0
132
0.0
 79
     1
146
0.0
348
2F
 60
     3
 61
     5
292
     1
282
     1
141
0.0
142
0.0
 63
   250
361
214
  0
ENDTAB
  0
TABLE
  2
LTYPE
  5
5
330
0
100
AcDbSymbolTable
 70
     1
  0
LTYPE
  5
14
330
5
100
AcDbSymbolTableRecord
100
AcDbLinetypeTableRecord
  2
ByBlock
 70
     0
  3

 72
    65
 73
     0
 40
0.0
  0
LTYPE
  5
15
330
5
100
AcDbSymbolTableRecord
100
AcDbLinetypeTableRecord
  2
ByLayer
 70
     0
  3

 72
    65
 73
     0
 40
0.0
  0
LTYPE
  5
16
330
5
100
AcDbSymbolTableRecord
100
AcDbLinetypeTableRecord
  2
Continuous
 70
     0
  3
Solid line
 72
    65
 73
     0
 40
0.0
  0
ENDTAB
  0
TABLE
  2
LAYER
  5
2
102
{ACAD_XDICTIONARY
360
216
102
}
330
0
100
AcDbSymbolTable
 70
    14
  0
LAYER
  5
10
330
2
100
AcDbSymbolTableRecord
100
AcDbLayerTableRecord
  2
0
 70
     0
 62
     7
  6
Continuous
370
     0
390
F
347
3E
  0
LAYER
  5
3F
330
2
100
AcDbSymbolTableRecord
100
AcDbLayerTableRecord
  2
GALERI
 70
     0
 62
     4
  6
Continuous
370
     0
390
F
347
3E
  0
LAYER
  5
40
330
2
100
AcDbSymbolTableRecord
100
AcDbLayerTableRecord
  2
DAMAR_AKALIN
 70
     0
 62
    96
  6
Continuous
370
     0
390
F
347
3E
  0
LAYER
  5
41
330
2
100
AcDbSymbolTableRecord
100
AcDbLayerTableRecord
  2
NEFESLIK
 70
     0
 62
    29
  6
Continuous
370
     0
390
F
347
3E
  0
LAYER
  5
42
330
2
100
AcDbSymbolTableRecord
100
AcDbLayerTableRecord
  2
DESANDRE
 70
     0
 62
   214
  6
Continuous
370
     0
390
F
347
3E
  0
LAYER
  5
43
330
2
100
AcDbSymbolTableRecord
100
AcDbLayerTableRecord
  2
YAZILAR
 70
     0
 62
     7
  6
Continuous
370
     0
390
F
347
3E
  0
LAYER
  5
44
330
2
100
AcDbSymbolTableRecord
100
AcDbLayerTableRecord
  2
HH
 70
     0
 62
     7
  6
Continuous
370
     0
390
F
347
3E
  0
LAYER
  5
45
330
2
100
AcDbSymbolTableRecord
100
AcDbLayerTableRecord
  2
TOPUK
 70
     0
 62
     7
  6
Continuous
370
     0
390
F
347
3E
  0
LAYER
  5
46
330
2
100
AcDbSymbolTableRecord
100
AcDbLayerTableRecord
  2
BACA
 70
     0
 62
     7
  6
Continuous
370
     0
390
F
347
3E
  0
LAYER
  5
47
330
2
100
AcDbSymbolTableRecord
100
AcDbLayerTableRecord
  2
SEMBOL
 70
     0
 62
     7
  6
Continuous
370
     0
390
F
347
3E
  0
LAYER
  5
48
330
2
100
AcDbSymbolTableRecord
100
AcDbLayerTableRecord
  2
DAMAR_CAY
 70
     0
 62
    16
  6
Continuous
370
     0
390
F
347
3E
  0
LAYER
  5
49
330
2
100
AcDbSymbolTableRecord
100
AcDbLayerTableRecord
  2
CIZIM_ALANI
 70
     0
 62
     7
  6
Continuous
370
     0
390
F
347
3E
  0
LAYER
  5
2D9
330
2
100
AcDbSymbolTableRecord
100
AcDbLayerTableRecord
  2
GEOFENCE
 70
     4
 62
     3
  6
Continuous
370
     0
390
F
347
3E
1001
AcAecLayerStandard
1000

1000

  0
LAYER
  5
2DB
330
2
100
AcDbSymbolTableRecord
100
AcDbLayerTableRecord
  2
INIT_COORD
 70
     0
 62
     5
  6
Continuous
370
     0
390
F
347
3E
1001
AcAecLayerStandard
1000

1000

  0
ENDTAB
  0
TABLE
  2
STYLE
  5
3
330
0
100
AcDbSymbolTable
 70
     1
  0
STYLE
  5
11
330
3
100
AcDbSymbolTableRecord
100
AcDbTextStyleTableRecord
  2
Standard
 70
     0
 40
0.0
 41
1.0
 50
0.0
 71
     0
 42
2.5
  3
C:\Windows\Font\TIMES.TTF
  4

  0
ENDTAB
  0
TABLE
  2
VIEW
  5
6
330
0
100
AcDbSymbolTable
 70
     0
  0
ENDTAB
  0
TABLE
  2
UCS
  5
7
330
0
100
AcDbSymbolTable
 70
     0
  0
ENDTAB
  0
TABLE
  2
APPID
  5
9
330
0
100
AcDbSymbolTable
 70
     2
  0
APPID
  5
12
330
9
100
AcDbSymbolTableRecord
100
AcDbRegAppTableRecord
  2
ACAD
 70
     0
  0
APPID
  5
2DA
330
9
100
AcDbSymbolTableRecord
100
AcDbRegAppTableRecord
  2
AcAecLayerStandard
 70
     0
  0
ENDTAB
  0
TABLE
  2
DIMSTYLE
  5
A
330
0
100
AcDbSymbolTable
 70
     1
100
AcDbDimStyleTable
  0
DIMSTYLE
105
27
330
A
100
AcDbSymbolTableRecord
100
AcDbDimStyleTableRecord
  2
ISO-25
 70
     0
 41
2.5
 42
0.625
 43
3.75
 44
1.25
 73
     0
 74
     0
 77
     1
 78
     8
140
2.5
141
2.5
143
0.03937007874016
147
0.625
171
     3
172
     1
178
     0
271
     2
272
     2
274
     3
278
    44
283
     0
284
     8
340
11
  0
ENDTAB
  0
TABLE
  2
BLOCK_RECORD
  5
1
330
0
100
AcDbSymbolTable
 70
     4
  0
BLOCK_RECORD
  5
1F
330
1
100
AcDbSymbolTableRecord
100
AcDbBlockTableRecord
  2
*Model_Space
340
22
 70
     0
280
     1
281
     0
  0
BLOCK_RECORD
  5
1B
330
1
100
AcDbSymbolTableRecord
100
AcDbBlockTableRecord
  2
*Paper_Space
340
1E
 70
     0
280
     1
281
     0
  0
BLOCK_RECORD
  5
23
330
1
100
AcDbSymbolTableRecord
100
AcDbBlockTableRecord
  2
*Paper_Space0
340
26
 70
     0
280
     1
281
     0
  0
BLOCK_RECORD
  5
19D
330
1
100
AcDbSymbolTableRecord
100
AcDbBlockTableRecord
  2
Baca Ağzı
340
0
 70
     0
280
     1
281
     0
  0
BLOCK_RECORD
  5
1CD
330
1
100
AcDbSymbolTableRecord
100
AcDbBlockTableRecord
  2
Baca Ağzı_1
340
0
 70
     0
280
     1
281
     0
  0
BLOCK_RECORD
  5
1DB
330
1
100
AcDbSymbolTableRecord
100
AcDbBlockTableRecord
  2
Baca Ağzı_2
340
0
 70
     0
280
     1
281
     0
  0
ENDTAB
  0
ENDSEC
  0
SECTION
  2
BLOCKS
  0
BLOCK
  5
20
330
1F
100
AcDbEntity
  8
0
100
AcDbBlockBegin
  2
*Model_Space
 70
     0
 10
0.0
 20
0.0
 30
0.0
  3
*Model_Space
  1

  0
ENDBLK
  5
21
330
1F
100
AcDbEntity
  8
0
100
AcDbBlockEnd
  0
BLOCK
  5
1C
330
1B
100
AcDbEntity
 67
     1
  8
0
100
AcDbBlockBegin
  2
*Paper_Space
 70
     0
 10
0.0
 20
0.0
 30
0.0
  3
*Paper_Space
  1

  0
ENDBLK
  5
1D
330
1B
100
AcDbEntity
 67
     1
  8
0
100
AcDbBlockEnd
  0
BLOCK
  5
24
330
23
100
AcDbEntity
  8
0
100
AcDbBlockBegin
  2
*Paper_Space0
 70
     0
 10
0.0
 20
0.0
 30
0.0
  3
*Paper_Space0
  1

  0
ENDBLK
  5
25
330
23
100
AcDbEntity
  8
0
100
AcDbBlockEnd
  0
BLOCK
  5
19E
330
19D
100
AcDbEntity
  8
0
100
AcDbBlockBegin
  2
Baca Ağzı
 70
     0
 10
0.0
 20
0.0
 30
0.0
  3
Baca Ağzı
  1

  0
LINE
  5
1A0
330
19D
100
AcDbEntity
  8
DAMAR_AKALIN
 62
    29
370
    13
100
AcDbLine
 10
2.029999999329448
 20
5.999999999941792
 30
0.0
 11
2.029999998398125
 21
-0.0000000001164153
 31
-0.000000000003638
  0
LINE
  5
1A1
330
19D
100
AcDbEntity
  8
DAMAR_AKALIN
 62
    29
370
    13
100
AcDbLine
 10
-2.030000001192093
 20
6.0
 30
0.0
 11
-2.030000001192093
 21
0.0
 31
0.0
  0
LINE
  5
1A2
330
19D
100
AcDbEntity
  8
DAMAR_AKALIN
 62
    29
370
    13
100
AcDbLine
 10
-4.03000000026077
 20
5.999999999883585
 30
0.0
 11
-2.030000001192093
 21
5.999999999941792
 31
0.0
  0
LINE
  5
1A3
330
19D
100
AcDbEntity
  8
DAMAR_AKALIN
 62
    29
370
    13
100
AcDbLine
 10
-2.030000001192093
 20
5.999999999941792
 30
0.0
 11
-0.0000000009313226
 21
3.948715471080504
 31
0.0
  0
LINE
  5
1A4
330
19D
100
AcDbEntity
  8
DAMAR_AKALIN
 62
    29
370
    13
100
AcDbLine
 10
-0.0000000009313226
 20
3.948715471080504
 30
0.0
 11
2.029999999329448
 21
5.999999999883585
 31
0.0
  0
LINE
  5
1A5
330
19D
100
AcDbEntity
  8
DAMAR_AKALIN
 62
    29
370
    13
100
AcDbLine
 10
2.029999999329448
 20
5.999999999883585
 30
0.0
 11
4.029999998398125
 21
5.999999999883585
 31
0.0
  0
LINE
  5
1A6
330
19D
100
AcDbEntity
  8
DAMAR_AKALIN
 62
    29
370
    13
100
AcDbLine
 10
-0.0000000009313226
 20
3.948715471138712
 30
0.0
 11
2.029999999329448
 21
5.999999999941792
 31
0.0
  0
LINE
  5
1A7
330
19D
100
AcDbEntity
  8
DAMAR_AKALIN
 62
    29
370
    13
100
AcDbLine
 10
2.029999999329448
 20
5.999999999941792
 30
0.0
 11
2.03000000026077
 21
3.948715471138712
 31
0.0
  0
LINE
  5
1A8
330
19D
100
AcDbEntity
  8
DAMAR_AKALIN
 62
    29
370
    13
100
AcDbLine
 10
2.03000000026077
 20
3.948715471138712
 30
0.0
 11
2.03000000026077
 21
3.948715471138712
 31
0.0
  0
LINE
  5
1A9
330
19D
100
AcDbEntity
  8
DAMAR_AKALIN
 62
    29
370
    13
100
AcDbLine
 10
2.03000000026077
 20
3.948715471138712
 30
0.0
 11
-0.0000000009313226
 21
3.948715471138712
 31
0.0
  0
ENDBLK
  5
19F
330
19D
100
AcDbEntity
  8
0
100
AcDbBlockEnd
  0
BLOCK
  5
1CE
330
1CD
100
AcDbEntity
  8
0
100
AcDbBlockBegin
  2
Baca Ağzı_1
 70
     0
 10
0.0
 20
0.0
 30
0.0
  3
Baca Ağzı_1
  1

  0
LINE
  5
1D0
330
1CD
100
AcDbEntity
  8
GALERI
 62
    29
370
    13
100
AcDbLine
 10
2.029999999795109
 20
6.0
 30
0.000000000003638
 11
2.030000000726432
 21
0.0
 31
0.000000000003638
  0
LINE
  5
1D1
330
1CD
100
AcDbEntity
  8
GALERI
 62
    29
370
    13
100
AcDbLine
 10
-2.029999999795109
 20
5.999999999534339
 30
0.000000000003638
 11
-2.029999999329448
 21
-0.0000000004656613
 31
0.000000000003638
  0
LINE
  5
1D2
330
1CD
100
AcDbEntity
  8
GALERI
 62
    29
370
    13
100
AcDbLine
 10
-4.029999999795109
 20
6.0
 30
0.0
 11
-2.03000000026077
 21
5.999999999534339
 31
0.0
  0
LINE
  5
1D3
330
1CD
100
AcDbEntity
  8
GALERI
 62
    29
370
    13
100
AcDbLine
 10
-2.03000000026077
 20
5.999999999534339
 30
0.0
 11
-0.0000000004656613
 21
3.948715470731258
 31
0.0
  0
LINE
  5
1D4
330
1CD
100
AcDbEntity
  8
GALERI
 62
    29
370
    13
100
AcDbLine
 10
-0.0000000004656613
 20
3.948715470731258
 30
0.0
 11
2.029999999795109
 21
5.999999999534339
 31
0.0
  0
LINE
  5
1D5
330
1CD
100
AcDbEntity
  8
GALERI
 62
    29
370
    13
100
AcDbLine
 10
2.029999999795109
 20
5.999999999534339
 30
0.0
 11
4.029999999329448
 21
6.0
 31
0.0
  0
LINE
  5
1D6
330
1CD
100
AcDbEntity
  8
GALERI
 62
    29
370
    13
100
AcDbLine
 10
0.0
 20
3.948715470731258
 30
0.0
 11
2.029999999795109
 21
6.0
 31
0.000000000003638
  0
LINE
  5
1D7
330
1CD
100
AcDbEntity
  8
GALERI
 62
    29
370
    13
100
AcDbLine
 10
2.029999999795109
 20
6.0
 30
0.000000000003638
 11
2.03000000026077
 21
3.948715470731258
 31
0.0
  0
LINE
  5
1D8
330
1CD
100
AcDbEntity
  8
GALERI
 62
    29
370
    13
100
AcDbLine
 10
2.03000000026077
 20
3.948715470731258
 30
0.0
 11
2.03000000026077
 21
3.948715470731258
 31
0.0
  0
LINE
  5
1D9
330
1CD
100
AcDbEntity
  8
GALERI
 62
    29
370
    13
100
AcDbLine
 10
2.03000000026077
 20
3.948715470731258
 30
0.0
 11
0.0
 21
3.948715470731258
 31
0.0
  0
ENDBLK
  5
1CF
330
1CD
100
AcDbEntity
  8
0
100
AcDbBlockEnd
  0
BLOCK
  5
1DC
330
1DB
100
AcDbEntity
  8
0
100
AcDbBlockBegin
  2
Baca Ağzı_2
 70
     0
 10
0.0
 20
0.0
 30
0.0
  3
Baca Ağzı_2
  1

  0
LINE
  5
1DE
330
1DB
100
AcDbEntity
  8
NEFESLIK
 62
    29
370
    13
100
AcDbLine
 10
2.029999999853317
 20
6.0
 30
-0.000000000003638
 11
2.030000000086147
 21
0.0
 31
-0.000000000007276
  0
LINE
  5
1DF
330
1DB
100
AcDbEntity
  8
NEFESLIK
 62
    29
370
    13
100
AcDbLine
 10
-2.03000000002794
 20
6.0
 30
-0.000000000007276
 11
-2.029999999911524
 21
0.0
 31
-0.000000000003638
  0
LINE
  5
1E0
330
1DB
100
AcDbEntity
  8
NEFESLIK
 62
    29
370
    13
100
AcDbLine
 10
-4.029999999998836
 20
5.999999999068677
 30
0.0
 11
-2.030000000115251
 21
6.0
 31
0.0
  0
LINE
  5
1E1
330
1DB
100
AcDbEntity
  8
NEFESLIK
 62
    29
370
    13
100
AcDbLine
 10
-2.030000000115251
 20
6.0
 30
0.0
 11
-0.0000000002037268
 21
3.948715471662581
 31
0.0
  0
LINE
  5
1E2
330
1DB
100
AcDbEntity
  8
NEFESLIK
 62
    29
370
    13
100
AcDbLine
 10
-0.0000000002037268
 20
3.948715471662581
 30
0.0
 11
2.029999999766005
 21
6.0
 31
0.0
  0
LINE
  5
1E3
330
1DB
100
AcDbEntity
  8
NEFESLIK
 62
    29
370
    13
100
AcDbLine
 10
2.029999999766005
 20
6.0
 30
0.0
 11
4.029999999998836
 21
6.0
 31
0.0
  0
LINE
  5
1E4
330
1DB
100
AcDbEntity
  8
NEFESLIK
 62
    29
370
    13
100
AcDbLine
 10
-0.0000000000582077
 20
3.948715472593904
 30
-0.0000000000109139
 11
2.029999999853317
 21
6.0
 31
-0.0000000000109139
  0
LINE
  5
1E5
330
1DB
100
AcDbEntity
  8
NEFESLIK
 62
    29
370
    13
100
AcDbLine
 10
2.029999999853317
 20
6.0
 30
-0.0000000000109139
 11
2.030000000202563
 21
3.948715470731258
 31
-0.0000000000109139
  0
LINE
  5
1E6
330
1DB
100
AcDbEntity
  8
NEFESLIK
 62
    29
370
    13
100
AcDbLine
 10
2.030000000202563
 20
3.948715470731258
 30
-0.0000000000109139
 11
2.030000000202563
 21
3.948715470731258
 31
-0.0000000000109139
  0
LINE
  5
1E7
330
1DB
100
AcDbEntity
  8
NEFESLIK
 62
    29
370
    13
100
AcDbLine
 10
2.030000000202563
 20
3.948715470731258
 30
-0.0000000000109139
 11
-0.0000000000582077
 21
3.948715472593904
 31
-0.0000000000109139
  0
ENDBLK
  5
1DD
330
1DB
100
AcDbEntity
  8
0
100
AcDbBlockEnd
  0
ENDSEC
  0
SECTION
  2
ENTITIES
  0
POLYLINE
  5
8D
330
1F
100
AcDbEntity
  8
0
370
     0
100
AcDb3dPolyline
 66
     1
 10
0.0
 20
0.0
 30
0.0
 70
     8
  0
VERTEX
  5
8E
330
8D
100
AcDbEntity
  8
0
370
     0
100
AcDbVertex
100
AcDb3dPolylineVertex
 10
403116.7530650751
 20
4592274.277185162
 30
51.06156539916992
 70
    32
  0
VERTEX
  5
8F
330
8D
100
AcDbEntity
  8
0
370
     0
100
AcDbVertex
100
AcDb3dPolylineVertex
 10
403134.5053076213
 20
4592283.601470522
 30
51.06156539916992
 70
    32
  0
VERTEX
  5
90
330
8D
100
AcDbEntity
  8
0
370
     0
100
AcDbVertex
100
AcDb3dPolylineVertex
 10
403135.2787409818
 20
4592284.170383969
 30
51.06156539916992
 70
    32
  0
SEQEND
  5
91
330
8D
100
AcDbEntity
  8
0
370
     0
  0
POLYLINE
  5
92
330
1F
100
AcDbEntity
  8
0
370
     0
100
AcDb3dPolyline
 66
     1
 10
0.0
 20
0.0
 30
0.0
 70
     8
  0
VERTEX
  5
93
330
92
100
AcDbEntity
  8
0
370
     0
100
AcDbVertex
100
AcDb3dPolylineVertex
 10
403110.1355984058
 20
4592296.010627245
 30
51.49618148803711
 70
    32
  0
VERTEX
  5
94
330
92
100
AcDbEntity
  8
0
370
     0
100
AcDbVertex
100
AcDb3dPolylineVertex
 10
403112.9281364307
 20
4592295.479433739
 30
51.49618148803711
 70
    32
  0
VERTEX
  5
95
330
92
100
AcDbEntity
  8
0
370
     0
100
AcDbVertex
100
AcDb3dPolylineVertex
 10
403115.8601596205
 20
4592294.921707519
 30
51.49618148803711
 70
    32
  0
VERTEX
  5
96
330
92
100
AcDbEntity
  8
0
370
     0
100
AcDbVertex
100
AcDb3dPolylineVertex
 10
403135.4921401602
 20
4592287.757893703
 30
51.49618148803711
 70
    32
  0
VERTEX
  5
97
330
92
100
AcDbEntity
  8
0
370
     0
100
AcDbVertex
100
AcDb3dPolylineVertex
 10
403150.5029229413
 20
4592283.302661987
 30
51.49618148803711
 70
    32
  0
VERTEX
  5
98
330
92
100
AcDbEntity
  8
0
370
     0
100
AcDbVertex
100
AcDb3dPolylineVertex
 10
403169.7717292634
 20
4592266.426608115
 30
51.49618148803711
 70
    32
  0
VERTEX
  5
99
330
92
100
AcDbEntity
  8
0
370
     0
100
AcDbVertex
100
AcDb3dPolylineVertex
 10
403170.7980432713
 20
4592265.86239941
 30
51.49618148803711
 70
    32
  0
VERTEX
  5
9A
330
92
100
AcDbEntity
  8
0
370
     0
100
AcDbVertex
100
AcDb3dPolylineVertex
 10
403172.3032529539
 20
4592265.973636799
 30
51.49618148803711
 70
    32
  0
VERTEX
  5
9B
330
92
100
AcDbEntity
  8
0
370
     0
100
AcDbVertex
100
AcDb3dPolylineVertex
 10
403200.6692942894
 20
4592271.534658373
 30
51.49618148803711
 70
    32
  0
VERTEX
  5
9C
330
92
100
AcDbEntity
  8
0
370
     0
100
AcDbVertex
100
AcDb3dPolylineVertex
 10
403202.4164644228
 20
4592272.180266195
 30
51.49618148803711
 70
    32
  0
VERTEX
  5
9D
330
92
100
AcDbEntity
  8
0
370
     0
100
AcDbVertex
100
AcDb3dPolylineVertex
 10
403209.4976659814
 20
4592273.422892601
 30
51.49618148803711
 70
    32
  0
VERTEX
  5
9E
330
92
100
AcDbEntity
  8
0
370
     0
100
AcDbVertex
100
AcDb3dPolylineVertex
 10
403225.1669300147
 20
4592273.41788916
 30
51.49618148803711
 70
    32
  0
SEQEND
  5
9F
330
92
100
AcDbEntity
  8
0
370
     0
  0
POLYLINE
  5
A0
330
1F
100
AcDbEntity
  8
0
370
     0
100
AcDb3dPolyline
 66
     1
 10
0.0
 20
0.0
 30
0.0
 70
     8
  0
VERTEX
  5
A1
330
A0
100
AcDbEntity
  8
0
370
     0
100
AcDbVertex
100
AcDb3dPolylineVertex
 10
403203.8342687697
 20
4592268.875901837
 30
52.01224517822266
 70
    32
  0
VERTEX
  5
A2
330
A0
100
AcDbEntity
  8
0
370
     0
100
AcDbVertex
100
AcDb3dPolylineVertex
 10
403204.3611423001
 20
4592268.047766877
 30
52.01224517822266
 70
    32
  0
VERTEX
  5
A3
330
A0
100
AcDbEntity
  8
0
370
     0
100
AcDbVertex
100
AcDb3dPolylineVertex
 10
403209.4836224667
 20
4592256.49791458
 30
52.01224517822266
 70
    32
  0
VERTEX
  5
A4
330
A0
100
AcDbEntity
  8
0
370
     0
100
AcDbVertex
100
AcDb3dPolylineVertex
 10
403214.843490687
 20
4592248.266671901
 30
52.01224517822266
 70
    32
  0
VERTEX
  5
A5
330
A0
100
AcDbEntity
  8
0
370
     0
100
AcDbVertex
100
AcDb3dPolylineVertex
 10
403215.2300067081
 20
4592247.947483587
 30
52.01224517822266
 70
    32
  0
VERTEX
  5
A6
330
A0
100
AcDbEntity
  8
0
370
     0
100
AcDbVertex
100
AcDb3dPolylineVertex
 10
403218.0680802767
 20
4592248.346828882
 30
52.01224517822266
 70
    32
  0
VERTEX
  5
A7
330
A0
100
AcDbEntity
  8
0
370
     0
100
AcDbVertex
100
AcDb3dPolylineVertex
 10
403224.6919988741
 20
4592249.702070161
 30
52.01224517822266
 70
    32
  0
VERTEX
  5
A8
330
A0
100
AcDbEntity
  8
0
370
     0
100
AcDbVertex
100
AcDb3dPolylineVertex
 10
403226.3726638297
 20
4592250.045931048
 30
52.01224517822266
 70
    32
  0
SEQEND
  5
A9
330
A0
100
AcDbEntity
  8
0
370
     0
  0
POLYLINE
  5
AA
330
1F
100
AcDbEntity
  8
0
370
     0
100
AcDb3dPolyline
 66
     1
 10
0.0
 20
0.0
 30
0.0
 70
     8
  0
VERTEX
  5
AB
330
AA
100
AcDbEntity
  8
0
370
     0
100
AcDbVertex
100
AcDb3dPolylineVertex
 10
403200.3084047756
 20
4592267.897553192
 30
52.07646560668945
 70
    32
  0
VERTEX
  5
AC
330
AA
100
AcDbEntity
  8
0
370
     0
100
AcDbVertex
100
AcDb3dPolylineVertex
 10
403201.2677532816
 20
4592266.389658051
 30
52.07646560668945
 70
    32
  0
VERTEX
  5
AD
330
AA
100
AcDbEntity
  8
0
370
     0
100
AcDbVertex
100
AcDb3dPolylineVertex
 10
403206.3977724044
 20
4592254.822807382
 30
52.07646560668945
 70
    32
  0
VERTEX
  5
AE
330
AA
100
AcDbEntity
  8
0
370
     0
100
AcDbVertex
100
AcDb3dPolylineVertex
 10
403212.2022454962
 20
4592245.908777282
 30
52.07646560668945
 70
    32
  0
VERTEX
  5
AF
330
AA
100
AcDbEntity
  8
0
370
     0
100
AcDbVertex
100
AcDb3dPolylineVertex
 10
403214.1900393481
 20
4592244.26723972
 30
52.07646560668945
 70
    32
  0
VERTEX
  5
B0
330
AA
100
AcDbEntity
  8
0
370
     0
100
AcDbVertex
100
AcDb3dPolylineVertex
 10
403218.6627630841
 20
4592244.896596617
 30
52.07646560668945
 70
    32
  0
VERTEX
  5
B1
330
AA
100
AcDbEntity
  8
0
370
     0
100
AcDbVertex
100
AcDb3dPolylineVertex
 10
403225.3930625101
 20
4592246.273603214
 30
52.07646560668945
 70
    32
  0
VERTEX
  5
B2
330
AA
100
AcDbEntity
  8
0
370
     0
100
AcDbVertex
100
AcDb3dPolylineVertex
 10
403227.0737274662
 20
4592246.617464101
 30
52.07646560668945
 70
    32
  0
SEQEND
  5
B3
330
AA
100
AcDbEntity
  8
0
370
     0
  0
POLYLINE
  5
B4
330
1F
100
AcDbEntity
  8
0
370
     0
100
AcDb3dPolyline
 66
     1
 10
0.0
 20
0.0
 30
0.0
 70
     8
  0
VERTEX
  5
B5
330
B4
100
AcDbEntity
  8
0
370
     0
100
AcDbVertex
100
AcDb3dPolylineVertex
 10
403231.4133533197
 20
4592315.304034782
 30
0.7121618390083313
 70
    32
  0
VERTEX
  5
B6
330
B4
100
AcDbEntity
  8
0
370
     0
100
AcDbVertex
100
AcDb3dPolylineVertex
 10
403259.4501145657
 20
4592312.444731304
 30
0.7121618390083313
 70
    32
  0
SEQEND
  5
B7
330
B4
100
AcDbEntity
  8
0
370
     0
  0
POLYLINE
  5
B8
330
1F
100
AcDbEntity
  8
0
370
     0
100
AcDb3dPolyline
 66
     1
 10
0.0
 20
0.0
 30
0.0
 70
     8
  0
VERTEX
  5
B9
330
B8
100
AcDbEntity
  8
0
370
     0
100
AcDbVertex
100
AcDb3dPolylineVertex
 10
403597.8842835335
 20
4592469.187955052
 30
-79.6474838256836
 70
    32
  0
VERTEX
  5
BA
330
B8
100
AcDbEntity
  8
0
370
     0
100
AcDbVertex
100
AcDb3dPolylineVertex
 10
403592.2721699369
 20
4592448.776832546
 30
-79.6474838256836
 70
    32
  0
VERTEX
  5
BB
330
B8
100
AcDbEntity
  8
0
370
     0
100
AcDbVertex
100
AcDb3dPolylineVertex
 10
403583.9730351704
 20
4592437.568795485
 30
-79.6474838256836
 70
    32
  0
SEQEND
  5
BC
330
B8
100
AcDbEntity
  8
0
370
     0
  0
POLYLINE
  5
BD
330
1F
100
AcDbEntity
  8
0
370
     0
100
AcDb3dPolyline
 66
     1
 10
0.0
 20
0.0
 30
0.0
 70
     8
  0
VERTEX
  5
BE
330
BD
100
AcDbEntity
  8
0
370
     0
100
AcDbVertex
100
AcDb3dPolylineVertex
 10
403595.1274312115
 20
4592472.363167357
 30
-79.65934753417969
 70
    32
  0
VERTEX
  5
BF
330
BD
100
AcDbEntity
  8
0
370
     0
100
AcDbVertex
100
AcDb3dPolylineVertex
 10
403589.0705840493
 20
4592450.334559543
 30
-79.65934753417969
 70
    32
  0
VERTEX
  5
C0
330
BD
100
AcDbEntity
  8
0
370
     0
100
AcDbVertex
100
AcDb3dPolylineVertex
 10
403579.7810216885
 20
4592437.788943388
 30
-79.65934753417969
 70
    32
  0
SEQEND
  5
C1
330
BD
100
AcDbEntity
  8
0
370
     0
  0
POLYLINE
  5
C2
330
1F
100
AcDbEntity
  8
0
370
     0
100
AcDb3dPolyline
 66
     1
 10
0.0
 20
0.0
 30
0.0
 70
     8
  0
VERTEX
  5
C3
330
C2
100
AcDbEntity
  8
0
370
     0
100
AcDbVertex
100
AcDb3dPolylineVertex
 10
403500.0293296804
 20
4592445.211850642
 30
-80.70350646972656
 70
    32
  0
VERTEX
  5
C4
330
C2
100
AcDbEntity
  8
0
370
     0
100
AcDbVertex
100
AcDb3dPolylineVertex
 10
403494.2241905086
 20
4592416.00575997
 30
-80.70350646972656
 70
    32
  0
VERTEX
  5
C5
330
C2
100
AcDbEntity
  8
0
370
     0
100
AcDbVertex
100
AcDb3dPolylineVertex
 10
403491.4405492957
 20
4592398.438799673
 30
-80.70350646972656
 70
    32
  0
VERTEX
  5
C6
330
C2
100
AcDbEntity
  8
0
370
     0
100
AcDbVertex
100
AcDb3dPolylineVertex
 10
403490.0812706638
 20
4592389.860684918
 30
-80.70350646972656
 70
    32
  0
VERTEX
  5
C7
330
C2
100
AcDbEntity
  8
0
370
     0
100
AcDbVertex
100
AcDb3dPolylineVertex
 10
403488.794550795
 20
4592385.980517625
 30
-80.70350646972656
 70
    32
  0
VERTEX
  5
C8
330
C2
100
AcDbEntity
  8
0
370
     0
100
AcDbVertex
100
AcDb3dPolylineVertex
 10
403482.2996873629
 20
4592380.975441387
 30
-80.70350646972656
 70
    32
  0
SEQEND
  5
C9
330
C2
100
AcDbEntity
  8
0
370
     0
  0
POLYLINE
  5
CA
330
1F
100
AcDbEntity
  8
0
370
     0
100
AcDb3dPolyline
 66
     1
 10
0.0
 20
0.0
 30
0.0
 70
     8
  0
VERTEX
  5
CB
330
CA
100
AcDbEntity
  8
0
370
     0
100
AcDbVertex
100
AcDb3dPolylineVertex
 10
403498.1019844878
 20
4592417.564648523
 30
-80.9063720703125
 70
    32
  0
VERTEX
  5
CC
330
CA
100
AcDbEntity
  8
0
370
     0
100
AcDbVertex
100
AcDb3dPolylineVertex
 10
403500.3796470643
 20
4592417.082027128
 30
-80.9063720703125
 70
    32
  0
VERTEX
  5
CD
330
CA
100
AcDbEntity
  8
0
370
     0
100
AcDbVertex
100
AcDb3dPolylineVertex
 10
403505.1586310622
 20
4592418.968205948
 30
-80.9063720703125
 70
    32
  0
SEQEND
  5
CE
330
CA
100
AcDbEntity
  8
0
370
     0
  0
POLYLINE
  5
CF
330
1F
100
AcDbEntity
  8
0
370
     0
100
AcDb3dPolyline
 66
     1
 10
0.0
 20
0.0
 30
0.0
 70
     8
  0
VERTEX
  5
D0
330
CF
100
AcDbEntity
  8
0
370
     0
100
AcDbVertex
100
AcDb3dPolylineVertex
 10
403497.4687060603
 20
4592414.121178634
 30
-80.88946533203125
 70
    32
  0
VERTEX
  5
D1
330
CF
100
AcDbEntity
  8
0
370
     0
100
AcDbVertex
100
AcDb3dPolylineVertex
 10
403500.6847057635
 20
4592413.439729908
 30
-80.88946533203125
 70
    32
  0
VERTEX
  5
D2
330
CF
100
AcDbEntity
  8
0
370
     0
100
AcDbVertex
100
AcDb3dPolylineVertex
 10
403506.4435843839
 20
4592415.71265547
 30
-80.88946533203125
 70
    32
  0
SEQEND
  5
D3
330
CF
100
AcDbEntity
  8
0
370
     0
  0
POLYLINE
  5
D4
330
1F
100
AcDbEntity
  8
0
370
     0
100
AcDb3dPolyline
 66
     1
 10
0.0
 20
0.0
 30
0.0
 70
     8
  0
VERTEX
  5
D5
330
D4
100
AcDbEntity
  8
0
370
     0
100
AcDbVertex
100
AcDb3dPolylineVertex
 10
403595.1273233426
 20
4592472.362177746
 30
-78.60385131835938
 70
    32
  0
VERTEX
  5
D6
330
D4
100
AcDbEntity
  8
0
370
     0
100
AcDbVertex
100
AcDb3dPolylineVertex
 10
403604.6705565917
 20
4592473.541298385
 30
-78.60385131835938
 70
    32
  0
VERTEX
  5
D7
330
D4
100
AcDbEntity
  8
0
370
     0
100
AcDbVertex
100
AcDb3dPolylineVertex
 10
403623.8622633271
 20
4592472.417353817
 30
-78.60385131835938
 70
    32
  0
SEQEND
  5
D8
330
D4
100
AcDbEntity
  8
0
370
     0
  0
POLYLINE
  5
D9
330
1F
100
AcDbEntity
  8
0
370
     0
100
AcDb3dPolyline
 66
     1
 10
0.0
 20
0.0
 30
0.0
 70
     8
  0
VERTEX
  5
DA
330
D9
100
AcDbEntity
  8
0
370
     0
100
AcDbVertex
100
AcDb3dPolylineVertex
 10
403597.8843914021
 20
4592469.188944659
 30
-78.32323455810547
 70
    32
  0
VERTEX
  5
DB
330
D9
100
AcDbEntity
  8
0
370
     0
100
AcDbVertex
100
AcDb3dPolylineVertex
 10
403604.7759108192
 20
4592470.040431001
 30
-78.32323455810547
 70
    32
  0
VERTEX
  5
DC
330
D9
100
AcDbEntity
  8
0
370
     0
100
AcDbVertex
100
AcDb3dPolylineVertex
 10
403623.6489715024
 20
4592468.935147646
 30
-78.32323455810547
 70
    32
  0
SEQEND
  5
DD
330
D9
100
AcDbEntity
  8
0
370
     0
  0
POLYLINE
  5
DE
330
1F
100
AcDbEntity
  8
0
370
     0
100
AcDb3dPolyline
 66
     1
 10
0.0
 20
0.0
 30
0.0
 70
     8
  0
VERTEX
  5
DF
330
DE
100
AcDbEntity
  8
0
370
     0
100
AcDbVertex
100
AcDb3dPolylineVertex
 10
403388.3877993317
 20
4592415.957663086
 30
-76.1190185546875
 70
    32
  0
VERTEX
  5
E0
330
DE
100
AcDbEntity
  8
0
370
     0
100
AcDbVertex
100
AcDb3dPolylineVertex
 10
403391.7567493804
 20
4592431.912259804
 30
-76.1190185546875
 70
    32
  0
VERTEX
  5
E1
330
DE
100
AcDbEntity
  8
0
370
     0
100
AcDbVertex
100
AcDb3dPolylineVertex
 10
403385.1798748246
 20
4592451.391810536
 30
-76.1190185546875
 70
    32
  0
SEQEND
  5
E2
330
DE
100
AcDbEntity
  8
0
370
     0
  0
POLYLINE
  5
E3
330
1F
100
AcDbEntity
  8
0
370
     0
100
AcDb3dPolyline
 66
     1
 10
0.0
 20
0.0
 30
0.0
 70
     8
  0
VERTEX
  5
E4
330
E3
100
AcDbEntity
  8
0
370
     0
100
AcDbVertex
100
AcDb3dPolylineVertex
 10
403347.4626193723
 20
4592277.926969509
 30
0.1855710595846176
 70
    32
  0
VERTEX
  5
E5
330
E3
100
AcDbEntity
  8
0
370
     0
100
AcDbVertex
100
AcDb3dPolylineVertex
 10
403351.9885335463
 20
4592281.012989747
 30
0.1855710595846176
 70
    32
  0
SEQEND
  5
E6
330
E3
100
AcDbEntity
  8
0
370
     0
  0
POLYLINE
  5
E7
330
1F
100
AcDbEntity
  8
0
370
     0
100
AcDb3dPolyline
 66
     1
 10
0.0
 20
0.0
 30
0.0
 70
     8
  0
VERTEX
  5
E8
330
E7
100
AcDbEntity
  8
0
370
     0
100
AcDbVertex
100
AcDb3dPolylineVertex
 10
403348.266011973
 20
4592274.238607691
 30
0.2000689953565598
 70
    32
  0
VERTEX
  5
E9
330
E7
100
AcDbEntity
  8
0
370
     0
100
AcDbVertex
100
AcDb3dPolylineVertex
 10
403354.0439981034
 20
4592278.178360293
 30
0.2000689953565598
 70
    32
  0
SEQEND
  5
EA
330
E7
100
AcDbEntity
  8
0
370
     0
  0
POLYLINE
  5
EB
330
1F
100
AcDbEntity
  8
0
370
     0
100
AcDb3dPolyline
 66
     1
 10
0.0
 20
0.0
 30
0.0
 70
     8
  0
VERTEX
  5
EC
330
EB
100
AcDbEntity
  8
0
370
     0
100
AcDbVertex
100
AcDb3dPolylineVertex
 10
403342.3091173251
 20
4592285.141199328
 30
0.0786846429109573
 70
    32
  0
VERTEX
  5
ED
330
EB
100
AcDbEntity
  8
0
370
     0
100
AcDbVertex
100
AcDb3dPolylineVertex
 10
403333.6085941968
 20
4592288.190768029
 30
0.0786846429109573
 70
    32
  0
VERTEX
  5
EE
330
EB
100
AcDbEntity
  8
0
370
     0
100
AcDbVertex
100
AcDb3dPolylineVertex
 10
403331.9088294995
 20
4592288.323505818
 30
0.0786846429109573
 70
    32
  0
VERTEX
  5
EF
330
EB
100
AcDbEntity
  8
0
370
     0
100
AcDbVertex
100
AcDb3dPolylineVertex
 10
403330.315934074
 20
4592287.983604913
 30
0.0786846429109573
 70
    32
  0
SEQEND
  5
F0
330
EB
100
AcDbEntity
  8
0
370
     0
  0
POLYLINE
  5
F1
330
1F
100
AcDbEntity
  8
0
370
     0
100
AcDb3dPolyline
 66
     1
 10
0.0
 20
0.0
 30
0.0
 70
     8
  0
VERTEX
  5
F2
330
F1
100
AcDbEntity
  8
0
370
     0
100
AcDbVertex
100
AcDb3dPolylineVertex
 10
403342.8650780671
 20
4592288.654796054
 30
0.0302262771874666
 70
    32
  0
VERTEX
  5
F3
330
F1
100
AcDbEntity
  8
0
370
     0
100
AcDbVertex
100
AcDb3dPolylineVertex
 10
403334.3359612211
 20
4592291.644286156
 30
0.0302262771874666
 70
    32
  0
VERTEX
  5
F4
330
F1
100
AcDbEntity
  8
0
370
     0
100
AcDbVertex
100
AcDb3dPolylineVertex
 10
403331.6750888578
 20
4592291.852078633
 30
0.0302262771874666
 70
    32
  0
VERTEX
  5
F5
330
F1
100
AcDbEntity
  8
0
370
     0
100
AcDbVertex
100
AcDb3dPolylineVertex
 10
403329.4371927945
 20
4592291.374543898
 30
0.0302262771874666
 70
    32
  0
SEQEND
  5
F6
330
F1
100
AcDbEntity
  8
0
370
     0
  0
POLYLINE
  5
FC
330
1F
100
AcDbEntity
  8
0
370
     0
100
AcDb3dPolyline
 66
     1
 10
0.0
 20
0.0
 30
0.0
 70
     8
  0
VERTEX
  5
FD
330
FC
100
AcDbEntity
  8
0
370
     0
100
AcDbVertex
100
AcDb3dPolylineVertex
 10
403224.6403459487
 20
4592251.694746792
 30
56.54635620117188
 70
    32
  0
VERTEX
  5
FE
330
FC
100
AcDbEntity
  8
0
370
     0
100
AcDbVertex
100
AcDb3dPolylineVertex
 10
403226.0916280723
 20
4592264.100135926
 30
56.54635620117188
 70
    32
  0
VERTEX
  5
FF
330
FC
100
AcDbEntity
  8
0
370
     0
100
AcDbVertex
100
AcDb3dPolylineVertex
 10
403228.209972146
 20
4592269.944215393
 30
56.54635620117188
 70
    32
  0
SEQEND
  5
100
330
FC
100
AcDbEntity
  8
0
370
     0
  0
POLYLINE
  5
101
330
1F
100
AcDbEntity
  8
0
370
     0
100
AcDb3dPolyline
 66
     1
 10
0.0
 20
0.0
 30
0.0
 70
     8
  0
VERTEX
  5
102
330
101
100
AcDbEntity
  8
0
370
     0
100
AcDbVertex
100
AcDb3dPolylineVertex
 10
403227.0250408401
 20
4592251.415766018
 30
51.52960968017578
 70
    32
  0
VERTEX
  5
103
330
101
100
AcDbEntity
  8
0
370
     0
100
AcDbVertex
100
AcDb3dPolylineVertex
 10
403228.2314645781
 20
4592261.728134429
 30
51.52960968017578
 70
    32
  0
VERTEX
  5
104
330
101
100
AcDbEntity
  8
0
370
     0
100
AcDbVertex
100
AcDb3dPolylineVertex
 10
403231.199362332
 20
4592269.915959315
 30
51.52960968017578
 70
    32
  0
SEQEND
  5
105
330
101
100
AcDbEntity
  8
0
370
     0
  0
POLYLINE
  5
106
330
1F
100
AcDbEntity
  8
0
370
     0
100
AcDb3dPolyline
 66
     1
 10
0.0
 20
0.0
 30
0.0
 70
     8
  0
VERTEX
  5
107
330
106
100
AcDbEntity
  8
0
370
     0
100
AcDbVertex
100
AcDb3dPolylineVertex
 10
403226.0690502404
 20
4592249.953910578
 30
-0.0366477407515049
 70
    32
  0
VERTEX
  5
108
330
106
100
AcDbEntity
  8
0
370
     0
100
AcDbVertex
100
AcDb3dPolylineVertex
 10
403329.4371532237
 20
4592291.374180868
 30
-0.0366477407515049
 70
    32
  0
SEQEND
  5
109
330
106
100
AcDbEntity
  8
0
370
     0
  0
POLYLINE
  5
10A
330
1F
100
AcDbEntity
  8
0
370
     0
100
AcDb3dPolyline
 66
     1
 10
0.0
 20
0.0
 30
0.0
 70
     8
  0
VERTEX
  5
10B
330
10A
100
AcDbEntity
  8
0
370
     0
100
AcDbVertex
100
AcDb3dPolylineVertex
 10
403227.3781837473
 20
4592246.70800767
 30
0.0511585250496864
 70
    32
  0
VERTEX
  5
10C
330
10A
100
AcDbEntity
  8
0
370
     0
100
AcDbVertex
100
AcDb3dPolylineVertex
 10
403330.6053058599
 20
4592288.071786012
 30
0.0511585250496864
 70
    32
  0
SEQEND
  5
10D
330
10A
100
AcDbEntity
  8
0
370
     0
  0
POLYLINE
  5
10E
330
1F
100
AcDbEntity
  8
0
370
     0
100
AcDb3dPolyline
 66
     1
 10
0.0
 20
0.0
 30
0.0
 70
     8
  0
VERTEX
  5
10F
330
10E
100
AcDbEntity
  8
0
370
     0
100
AcDbVertex
100
AcDb3dPolylineVertex
 10
403351.9885189495
 20
4592281.012855836
 30
-81.09770202636719
 70
    32
  0
VERTEX
  5
110
330
10E
100
AcDbEntity
  8
0
370
     0
100
AcDbVertex
100
AcDb3dPolylineVertex
 10
403482.2934972973
 20
4592380.97614845
 30
-81.09770202636719
 70
    32
  0
SEQEND
  5
111
330
10E
100
AcDbEntity
  8
0
370
     0
  0
POLYLINE
  5
112
330
1F
100
AcDbEntity
  8
0
370
     0
100
AcDb3dPolyline
 66
     1
 10
0.0
 20
0.0
 30
0.0
 70
     8
  0
VERTEX
  5
113
330
112
100
AcDbEntity
  8
0
370
     0
100
AcDbVertex
100
AcDb3dPolylineVertex
 10
403354.0440126991
 20
4592278.178494204
 30
-81.08390808105469
 70
    32
  0
VERTEX
  5
114
330
112
100
AcDbEntity
  8
0
370
     0
100
AcDbVertex
100
AcDb3dPolylineVertex
 10
403484.4292430182
 20
4592378.203352012
 30
-81.08390808105469
 70
    32
  0
SEQEND
  5
115
330
112
100
AcDbEntity
  8
0
370
     0
  0
POLYLINE
  5
116
330
1F
100
AcDbEntity
  8
0
370
     0
100
AcDb3dPolyline
 66
     1
 10
0.0
 20
0.0
 30
0.0
 70
     8
  0
VERTEX
  5
117
330
116
100
AcDbEntity
  8
0
370
     0
100
AcDbVertex
100
AcDb3dPolylineVertex
 10
403115.1255240556
 20
4592277.375710419
 30
51.05588150024414
 70
    32
  0
VERTEX
  5
118
330
116
100
AcDbEntity
  8
0
370
     0
100
AcDbVertex
100
AcDb3dPolylineVertex
 10
403130.9526217869
 20
4592285.688822145
 30
51.05588150024414
 70
    32
  0
SEQEND
  5
119
330
116
100
AcDbEntity
  8
0
370
     0
  0
POLYLINE
  5
11A
330
1F
100
AcDbEntity
  8
0
370
     0
100
AcDb3dPolyline
 66
     1
 10
0.0
 20
0.0
 30
0.0
 70
     8
  0
VERTEX
  5
11B
330
11A
100
AcDbEntity
  8
0
370
     0
100
AcDbVertex
100
AcDb3dPolylineVertex
 10
403109.4814717314
 20
4592292.572349284
 30
51.03131103515625
 70
    32
  0
VERTEX
  5
11C
330
11A
100
AcDbEntity
  8
0
370
     0
100
AcDbVertex
100
AcDb3dPolylineVertex
 10
403112.2740097562
 20
4592292.041155779
 30
51.03131103515625
 70
    32
  0
VERTEX
  5
11D
330
11A
100
AcDbEntity
  8
0
370
     0
100
AcDbVertex
100
AcDb3dPolylineVertex
 10
403114.9270626162
 20
4592291.536494989
 30
51.03131103515625
 70
    32
  0
VERTEX
  5
11E
330
11A
100
AcDbEntity
  8
0
370
     0
100
AcDbVertex
100
AcDb3dPolylineVertex
 10
403130.952607248
 20
4592285.688688761
 30
51.03131103515625
 70
    32
  0
SEQEND
  5
11F
330
11A
100
AcDbEntity
  8
0
370
     0
  0
POLYLINE
  5
120
330
1F
100
AcDbEntity
  8
0
370
     0
100
AcDb3dPolyline
 66
     1
 10
0.0
 20
0.0
 30
0.0
 70
     8
  0
VERTEX
  5
121
330
120
100
AcDbEntity
  8
0
370
     0
100
AcDbVertex
100
AcDb3dPolylineVertex
 10
403135.2787392836
 20
4592284.170368392
 30
51.42890548706055
 70
    32
  0
VERTEX
  5
122
330
120
100
AcDbEntity
  8
0
370
     0
100
AcDbVertex
100
AcDb3dPolylineVertex
 10
403148.7729112763
 20
4592280.16526993
 30
51.42890548706055
 70
    32
  0
VERTEX
  5
123
330
120
100
AcDbEntity
  8
0
370
     0
100
AcDbVertex
100
AcDb3dPolylineVertex
 10
403167.7520237005
 20
4592263.542936487
 30
51.42890548706055
 70
    32
  0
VERTEX
  5
124
330
120
100
AcDbEntity
  8
0
370
     0
100
AcDbVertex
100
AcDb3dPolylineVertex
 10
403170.0211224552
 20
4592262.295515853
 30
51.42890548706055
 70
    32
  0
VERTEX
  5
125
330
120
100
AcDbEntity
  8
0
370
     0
100
AcDbVertex
100
AcDb3dPolylineVertex
 10
403172.7704874091
 20
4592262.498698296
 30
51.42890548706055
 70
    32
  0
VERTEX
  5
126
330
120
100
AcDbEntity
  8
0
370
     0
100
AcDbVertex
100
AcDb3dPolylineVertex
 10
403200.3083844017
 20
4592267.897366282
 30
51.42890548706055
 70
    32
  0
SEQEND
  5
127
330
120
100
AcDbEntity
  8
0
370
     0
  0
POLYLINE
  5
128
330
1F
100
AcDbEntity
  8
0
370
     0
100
AcDb3dPolyline
 66
     1
 10
0.0
 20
0.0
 30
0.0
 70
     8
  0
VERTEX
  5
129
330
128
100
AcDbEntity
  8
0
370
     0
100
AcDbVertex
100
AcDb3dPolylineVertex
 10
403203.8342430532
 20
4592268.875665917
 30
51.53081512451172
 70
    32
  0
VERTEX
  5
12A
330
128
100
AcDbEntity
  8
0
370
     0
100
AcDbVertex
100
AcDb3dPolylineVertex
 10
403209.801788478
 20
4592269.922865248
 30
51.53081512451172
 70
    32
  0
VERTEX
  5
12B
330
128
100
AcDbEntity
  8
0
370
     0
100
AcDbVertex
100
AcDb3dPolylineVertex
 10
403228.2070043262
 20
4592269.916988173
 30
51.53081512451172
 70
    32
  0
SEQEND
  5
12C
330
128
100
AcDbEntity
  8
0
370
     0
  0
POLYLINE
  5
12D
330
1F
100
AcDbEntity
  8
0
370
     0
100
AcDb3dPolyline
 66
     1
 10
0.0
 20
0.0
 30
0.0
 70
     8
  0
VERTEX
  5
12E
330
12D
100
AcDbEntity
  8
0
370
     0
100
AcDbVertex
100
AcDb3dPolylineVertex
 10
403231.1993703269
 20
4592269.916032666
 30
51.56809997558594
 70
    32
  0
VERTEX
  5
12F
330
12D
100
AcDbEntity
  8
0
370
     0
100
AcDbVertex
100
AcDb3dPolylineVertex
 10
403237.272415788
 20
4592269.914093447
 30
51.56809997558594
 70
    32
  0
SEQEND
  5
130
330
12D
100
AcDbEntity
  8
0
370
     0
  0
POLYLINE
  5
131
330
1F
100
AcDbEntity
  8
0
370
     0
100
AcDb3dPolyline
 66
     1
 10
0.0
 20
0.0
 30
0.0
 70
     8
  0
VERTEX
  5
132
330
131
100
AcDbEntity
  8
0
370
     0
100
AcDbVertex
100
AcDb3dPolylineVertex
 10
403235.6452156163
 20
4592311.363702364
 30
46.59796905517578
 70
    32
  0
VERTEX
  5
133
330
131
100
AcDbEntity
  8
0
370
     0
100
AcDbVertex
100
AcDb3dPolylineVertex
 10
403233.9762450218
 20
4592305.865466617
 30
46.59796905517578
 70
    32
  0
VERTEX
  5
134
330
131
100
AcDbEntity
  8
0
370
     0
100
AcDbVertex
100
AcDb3dPolylineVertex
 10
403234.5766127026
 20
4592298.738324429
 30
46.59796905517578
 70
    32
  0
VERTEX
  5
135
330
131
100
AcDbEntity
  8
0
370
     0
100
AcDbVertex
100
AcDb3dPolylineVertex
 10
403236.2383943565
 20
4592288.658468895
 30
46.59796905517578
 70
    32
  0
VERTEX
  5
136
330
131
100
AcDbEntity
  8
0
370
     0
100
AcDbVertex
100
AcDb3dPolylineVertex
 10
403234.0609370149
 20
4592278.916127466
 30
46.59796905517578
 70
    32
  0
VERTEX
  5
137
330
131
100
AcDbEntity
  8
0
370
     0
100
AcDbVertex
100
AcDb3dPolylineVertex
 10
403229.4755338355
 20
4592273.389825867
 30
46.59796905517578
 70
    32
  0
SEQEND
  5
138
330
131
100
AcDbEntity
  8
0
370
     0
  0
POLYLINE
  5
139
330
1F
100
AcDbEntity
  8
0
370
     0
100
AcDb3dPolyline
 66
     1
 10
0.0
 20
0.0
 30
0.0
 70
     8
  0
VERTEX
  5
13A
330
139
100
AcDbEntity
  8
0
370
     0
100
AcDbVertex
100
AcDb3dPolylineVertex
 10
403232.099376887
 20
4592311.728947894
 30
47.88656997680664
 70
    32
  0
VERTEX
  5
13B
330
139
100
AcDbEntity
  8
0
370
     0
100
AcDbVertex
100
AcDb3dPolylineVertex
 10
403230.5253890948
 20
4592306.543622297
 30
47.88656997680664
 70
    32
  0
VERTEX
  5
13C
330
139
100
AcDbEntity
  8
0
370
     0
100
AcDbVertex
100
AcDb3dPolylineVertex
 10
403231.1567567038
 20
4592299.048470799
 30
47.88656997680664
 70
    32
  0
VERTEX
  5
13D
330
139
100
AcDbEntity
  8
0
370
     0
100
AcDbVertex
100
AcDb3dPolylineVertex
 10
403232.7781305758
 20
4592289.213716423
 30
47.88656997680664
 70
    32
  0
VERTEX
  5
13E
330
139
100
AcDbEntity
  8
0
370
     0
100
AcDbVertex
100
AcDb3dPolylineVertex
 10
403230.7469599169
 20
4592280.125888302
 30
47.88656997680664
 70
    32
  0
VERTEX
  5
13F
330
139
100
AcDbEntity
  8
0
370
     0
100
AcDbVertex
100
AcDb3dPolylineVertex
 10
403225.1647941172
 20
4592273.398294114
 30
47.88656997680664
 70
    32
  0
SEQEND
  5
140
330
139
100
AcDbEntity
  8
0
370
     0
  0
POLYLINE
  5
141
330
1F
100
AcDbEntity
  8
0
370
     0
100
AcDb3dPolyline
 66
     1
 10
0.0
 20
0.0
 30
0.0
 70
     8
  0
VERTEX
  5
142
330
141
100
AcDbEntity
  8
0
370
     0
100
AcDbVertex
100
AcDb3dPolylineVertex
 10
403235.64420744
 20
4592311.354453204
 30
0.7310393452644348
 70
    32
  0
VERTEX
  5
143
330
141
100
AcDbEntity
  8
0
370
     0
100
AcDbVertex
100
AcDb3dPolylineVertex
 10
403265.245284656
 20
4592308.335614392
 30
0.7310393452644348
 70
    32
  0
SEQEND
  5
144
330
141
100
AcDbEntity
  8
0
370
     0
  0
POLYLINE
  5
145
330
1F
100
AcDbEntity
  8
0
370
     0
100
AcDb3dPolyline
 66
     1
 10
0.0
 20
0.0
 30
0.0
 70
     8
  0
VERTEX
  5
146
330
145
100
AcDbEntity
  8
0
370
     0
100
AcDbVertex
100
AcDb3dPolylineVertex
 10
403382.9663602007
 20
4592454.61583137
 30
-81.79288482666016
 70
    32
  0
VERTEX
  5
147
330
145
100
AcDbEntity
  8
0
370
     0
100
AcDbVertex
100
AcDb3dPolylineVertex
 10
403413.3109214877
 20
4592458.573942086
 30
-81.79288482666016
 70
    32
  0
VERTEX
  5
148
330
145
100
AcDbEntity
  8
0
370
     0
100
AcDbVertex
100
AcDb3dPolylineVertex
 10
403429.5347144828
 20
4592457.258356545
 30
-81.79288482666016
 70
    32
  0
VERTEX
  5
149
330
145
100
AcDbEntity
  8
0
370
     0
100
AcDbVertex
100
AcDb3dPolylineVertex
 10
403435.8698695263
 20
4592452.160484953
 30
-81.79288482666016
 70
    32
  0
VERTEX
  5
14A
330
145
100
AcDbEntity
  8
0
370
     0
100
AcDbVertex
100
AcDb3dPolylineVertex
 10
403445.0805776145
 20
4592452.383454686
 30
-81.79288482666016
 70
    32
  0
VERTEX
  5
14B
330
145
100
AcDbEntity
  8
0
370
     0
100
AcDbVertex
100
AcDb3dPolylineVertex
 10
403455.4845093153
 20
4592451.306941279
 30
-81.79288482666016
 70
    32
  0
VERTEX
  5
14C
330
145
100
AcDbEntity
  8
0
370
     0
100
AcDbVertex
100
AcDb3dPolylineVertex
 10
403468.4498340054
 20
4592453.389470823
 30
-81.79288482666016
 70
    32
  0
VERTEX
  5
14D
330
145
100
AcDbEntity
  8
0
370
     0
100
AcDbVertex
100
AcDb3dPolylineVertex
 10
403475.1612998698
 20
4592451.940623294
 30
-81.79288482666016
 70
    32
  0
VERTEX
  5
14E
330
145
100
AcDbEntity
  8
0
370
     0
100
AcDbVertex
100
AcDb3dPolylineVertex
 10
403483.7005820752
 20
4592452.855853617
 30
-81.79288482666016
 70
    32
  0
VERTEX
  5
14F
330
145
100
AcDbEntity
  8
0
370
     0
100
AcDbVertex
100
AcDb3dPolylineVertex
 10
403491.7202507721
 20
4592452.703267362
 30
-81.79288482666016
 70
    32
  0
VERTEX
  5
150
330
145
100
AcDbEntity
  8
0
370
     0
100
AcDbVertex
100
AcDb3dPolylineVertex
 10
403502.7831022928
 20
4592447.823103694
 30
-81.79288482666016
 70
    32
  0
VERTEX
  5
151
330
145
100
AcDbEntity
  8
0
370
     0
100
AcDbVertex
100
AcDb3dPolylineVertex
 10
403516.3767224578
 20
4592441.504677269
 30
-81.79288482666016
 70
    32
  0
VERTEX
  5
152
330
145
100
AcDbEntity
  8
0
370
     0
100
AcDbVertex
100
AcDb3dPolylineVertex
 10
403524.8285577409
 20
4592439.594085285
 30
-81.79288482666016
 70
    32
  0
VERTEX
  5
153
330
145
100
AcDbEntity
  8
0
370
     0
100
AcDbVertex
100
AcDb3dPolylineVertex
 10
403535.8913943577
 20
4592435.649586651
 30
-81.79288482666016
 70
    32
  0
VERTEX
  5
154
330
145
100
AcDbEntity
  8
0
370
     0
100
AcDbVertex
100
AcDb3dPolylineVertex
 10
403562.8474465998
 20
4592443.618472462
 30
-81.79288482666016
 70
    32
  0
VERTEX
  5
155
330
145
100
AcDbEntity
  8
0
370
     0
100
AcDbVertex
100
AcDb3dPolylineVertex
 10
403579.7797592224
 20
4592437.777361334
 30
-81.79288482666016
 70
    32
  0
SEQEND
  5
156
330
145
100
AcDbEntity
  8
0
370
     0
  0
POLYLINE
  5
157
330
1F
100
AcDbEntity
  8
0
370
     0
100
AcDb3dPolyline
 66
     1
 10
0.0
 20
0.0
 30
0.0
 70
     8
  0
VERTEX
  5
158
330
157
100
AcDbEntity
  8
0
370
     0
100
AcDbVertex
100
AcDb3dPolylineVertex
 10
403583.9717333413
 20
4592437.556852312
 30
-81.9460678100586
 70
    32
  0
VERTEX
  5
159
330
157
100
AcDbEntity
  8
0
370
     0
100
AcDbVertex
100
AcDb3dPolylineVertex
 10
403591.4397003911
 20
4592437.383940653
 30
-81.9460678100586
 70
    32
  0
SEQEND
  5
15A
330
157
100
AcDbEntity
  8
0
370
     0
  0
POLYLINE
  5
15B
330
1F
100
AcDbEntity
  8
0
370
     0
100
AcDb3dPolyline
 66
     1
 10
0.0
 20
0.0
 30
0.0
 70
     8
  0
VERTEX
  5
15C
330
15B
100
AcDbEntity
  8
0
370
     0
100
AcDbVertex
100
AcDb3dPolylineVertex
 10
403503.301148951
 20
4592443.721974039
 30
-80.91943359375
 70
    32
  0
VERTEX
  5
15D
330
15B
100
AcDbEntity
  8
0
370
     0
100
AcDbVertex
100
AcDb3dPolylineVertex
 10
403498.1019697801
 20
4592417.56451359
 30
-80.91943359375
 70
    32
  0
SEQEND
  5
15E
330
15B
100
AcDbEntity
  8
0
370
     0
  0
POLYLINE
  5
15F
330
1F
100
AcDbEntity
  8
0
370
     0
100
AcDb3dPolyline
 66
     1
 10
0.0
 20
0.0
 30
0.0
 70
     8
  0
VERTEX
  5
160
330
15F
100
AcDbEntity
  8
0
370
     0
100
AcDbVertex
100
AcDb3dPolylineVertex
 10
403497.4686834939
 20
4592414.120971608
 30
-80.74388122558594
 70
    32
  0
VERTEX
  5
161
330
15F
100
AcDbEntity
  8
0
370
     0
100
AcDbVertex
100
AcDb3dPolylineVertex
 10
403494.8969055652
 20
4592397.891034877
 30
-80.74388122558594
 70
    32
  0
VERTEX
  5
162
330
15F
100
AcDbEntity
  8
0
370
     0
100
AcDbVertex
100
AcDb3dPolylineVertex
 10
403493.4928642982
 20
4592389.030432769
 30
-80.74388122558594
 70
    32
  0
VERTEX
  5
163
330
15F
100
AcDbEntity
  8
0
370
     0
100
AcDbVertex
100
AcDb3dPolylineVertex
 10
403491.7789193412
 20
4592383.86194713
 30
-80.74388122558594
 70
    32
  0
VERTEX
  5
164
330
15F
100
AcDbEntity
  8
0
370
     0
100
AcDbVertex
100
AcDb3dPolylineVertex
 10
403484.4355500729
 20
4592378.202994727
 30
-80.74388122558594
 70
    32
  0
SEQEND
  5
165
330
15F
100
AcDbEntity
  8
0
370
     0
  0
POLYLINE
  5
166
330
1F
100
AcDbEntity
  8
0
370
     0
100
AcDb3dPolyline
 66
     1
 10
0.0
 20
0.0
 30
0.0
 70
     8
  0
VERTEX
  5
167
330
166
100
AcDbEntity
  8
0
370
     0
100
AcDbVertex
100
AcDb3dPolylineVertex
 10
403349.9428392157
 20
4592299.96907586
 30
0.1603086888790131
 70
    32
  0
VERTEX
  5
168
330
166
100
AcDbEntity
  8
0
370
     0
100
AcDbVertex
100
AcDb3dPolylineVertex
 10
403348.7715404236
 20
4592295.366441212
 30
0.1603086888790131
 70
    32
  0
VERTEX
  5
169
330
166
100
AcDbEntity
  8
0
370
     0
100
AcDbVertex
100
AcDb3dPolylineVertex
 10
403347.5639563521
 20
4592290.621223058
 30
0.1603086888790131
 70
    32
  0
VERTEX
  5
16A
330
166
100
AcDbEntity
  8
0
370
     0
100
AcDbVertex
100
AcDb3dPolylineVertex
 10
403345.6424601105
 20
4592286.282985442
 30
0.1603086888790131
 70
    32
  0
VERTEX
  5
16B
330
166
100
AcDbEntity
  8
0
370
     0
100
AcDbVertex
100
AcDb3dPolylineVertex
 10
403347.4626033609
 20
4592277.926822615
 30
0.1603086888790131
 70
    32
  0
SEQEND
  5
16C
330
166
100
AcDbEntity
  8
0
370
     0
  0
POLYLINE
  5
16D
330
1F
100
AcDbEntity
  8
0
370
     0
100
AcDb3dPolyline
 66
     1
 10
0.0
 20
0.0
 30
0.0
 70
     8
  0
VERTEX
  5
16E
330
16D
100
AcDbEntity
  8
0
370
     0
100
AcDbVertex
100
AcDb3dPolylineVertex
 10
403348.2659986551
 20
4592274.238485511
 30
0.2522620558738708
 70
    32
  0
VERTEX
  5
16F
330
16D
100
AcDbEntity
  8
0
370
     0
100
AcDbVertex
100
AcDb3dPolylineVertex
 10
403348.3813780121
 20
4592273.708786163
 30
0.2522620558738708
 70
    32
  0
VERTEX
  5
170
330
16D
100
AcDbEntity
  8
0
370
     0
100
AcDbVertex
100
AcDb3dPolylineVertex
 10
403351.2419488911
 20
4592260.576085734
 30
0.2522620558738708
 70
    32
  0
SEQEND
  5
171
330
16D
100
AcDbEntity
  8
0
370
     0
  0
POLYLINE
  5
172
330
1F
100
AcDbEntity
  8
0
370
     0
100
AcDb3dPolyline
 66
     1
 10
0.0
 20
0.0
 30
0.0
 70
     8
  0
VERTEX
  5
173
330
172
100
AcDbEntity
  8
0
370
     0
100
AcDbVertex
100
AcDb3dPolylineVertex
 10
403386.1275926892
 20
4592415.874960028
 30
-57.11176300048828
 70
    32
  0
VERTEX
  5
174
330
172
100
AcDbEntity
  8
0
370
     0
100
AcDbVertex
100
AcDb3dPolylineVertex
 10
403389.2346101686
 20
4592430.589102462
 30
-60.7829704284668
 70
    32
  0
VERTEX
  5
175
330
172
100
AcDbEntity
  8
0
370
     0
100
AcDbVertex
100
AcDb3dPolylineVertex
 10
403382.0775903728
 20
4592451.786941806
 30
-80.04380798339844
 70
    32
  0
VERTEX
  5
176
330
172
100
AcDbEntity
  8
0
370
     0
100
AcDbVertex
100
AcDb3dPolylineVertex
 10
403382.9663602007
 20
4592454.61583137
 30
-79.26068115234375
 70
    32
  0
SEQEND
  5
177
330
172
100
AcDbEntity
  8
0
370
     0
  0
LINE
  5
178
330
1F
100
AcDbEntity
  8
0
370
     0
100
AcDbLine
 10
403623.6489715027
 20
4592468.935147647
 30
-78.32323455810547
 11
403623.8622633264
 21
4592472.417353818
 31
-78.60385131835938
  0
LINE
  5
179
330
1F
100
AcDbEntity
  8
0
370
     0
100
AcDbLine
 10
403591.4397003911
 20
4592437.383940654
 30
-81.9460678100586
 11
403591.3589409428
 21
4592433.884926292
 31
-81.92666625976562
  0
POLYLINE
  5
180
330
1F
100
AcDbEntity
  8
0
370
     0
100
AcDb3dPolyline
 66
     1
 10
0.0
 20
0.0
 30
0.0
 70
     8
  0
VERTEX
  5
181
330
180
100
AcDbEntity
  8
0
370
     0
100
AcDbVertex
100
AcDb3dPolylineVertex
 10
403263.0853878374
 20
4592312.073991278
 30
0.7310393452644348
 70
    32
  0
VERTEX
  5
182
330
180
100
AcDbEntity
  8
0
370
     0
100
AcDbVertex
100
AcDb3dPolylineVertex
 10
403265.6003810536
 20
4592311.817501993
 30
0.7310393452644348
 70
    32
  0
VERTEX
  5
183
330
180
100
AcDbEntity
  8
0
370
     0
100
AcDbVertex
100
AcDb3dPolylineVertex
 10
403265.2452846561
 20
4592308.33561439
 30
0.7310393452644348
 70
    32
  0
SEQEND
  5
184
330
180
100
AcDbEntity
  8
0
370
     0
  0
POLYLINE
  5
185
330
1F
100
AcDbEntity
  8
0
370
     0
100
AcDb3dPolyline
 66
     1
 10
0.0
 20
0.0
 30
0.0
 70
     8
  0
VERTEX
  5
186
330
185
100
AcDbEntity
  8
0
370
     0
100
AcDbVertex
100
AcDb3dPolylineVertex
 10
403231.4133533199
 20
4592315.304034781
 30
0.732302188873291
 70
    32
  0
VERTEX
  5
187
330
185
100
AcDbEntity
  8
0
370
     0
100
AcDbVertex
100
AcDb3dPolylineVertex
 10
403231.0582569222
 20
4592311.822147177
 30
0.732302188873291
 70
    32
  0
VERTEX
  5
188
330
185
100
AcDbEntity
  8
0
370
     0
100
AcDbVertex
100
AcDb3dPolylineVertex
 10
403232.0979777715
 20
4592311.716112196
 30
0.732302188873291
 70
    32
  0
SEQEND
  5
189
330
185
100
AcDbEntity
  8
0
370
     0
  0
POLYLINE
  5
18A
330
1F
100
AcDbEntity
  8
0
370
     0
100
AcDb3dPolyline
 66
     1
 10
0.0
 20
0.0
 30
0.0
 70
     8
  0
VERTEX
  5
18B
330
18A
100
AcDbEntity
  8
0
370
     0
100
AcDbVertex
100
AcDb3dPolylineVertex
 10
403229.4784427218
 20
4592273.416512425
 30
51.56809997558594
 70
    32
  0
VERTEX
  5
18C
330
18A
100
AcDbEntity
  8
0
370
     0
100
AcDbVertex
100
AcDb3dPolylineVertex
 10
403237.2736243659
 20
4592273.414023303
 30
51.56809997558594
 70
    32
  0
VERTEX
  5
18D
330
18A
100
AcDbEntity
  8
0
370
     0
100
AcDbVertex
100
AcDb3dPolylineVertex
 10
403237.272415788
 20
4592269.914093446
 30
51.56809997558594
 70
    32
  0
SEQEND
  5
18E
330
18A
100
AcDbEntity
  8
0
370
     0
  0
POLYLINE
  5
18F
330
1F
100
AcDbEntity
  8
0
370
     0
100
AcDb3dPolyline
 66
     1
 10
0.0
 20
0.0
 30
0.0
 70
     8
  0
VERTEX
  5
190
330
18F
100
AcDbEntity
  8
0
370
     0
100
AcDbVertex
100
AcDb3dPolylineVertex
 10
403349.9428392156
 20
4592299.969075861
 30
0.1047909781336784
 70
    32
  0
VERTEX
  5
191
330
18F
100
AcDbEntity
  8
0
370
     0
100
AcDbVertex
100
AcDb3dPolylineVertex
 10
403346.550947041
 20
4592300.832244617
 30
0.1047909781336784
 70
    32
  0
VERTEX
  5
192
330
18F
100
AcDbEntity
  8
0
370
     0
100
AcDbVertex
100
AcDb3dPolylineVertex
 10
403345.379648249
 20
4592296.229609966
 30
0.1047909781336784
 70
    32
  0
VERTEX
  5
193
330
18F
100
AcDbEntity
  8
0
370
     0
100
AcDbVertex
100
AcDb3dPolylineVertex
 10
403344.2446347365
 20
4592291.76955882
 30
0.1047909781336784
 70
    32
  0
VERTEX
  5
194
330
18F
100
AcDbEntity
  8
0
370
     0
100
AcDbVertex
100
AcDb3dPolylineVertex
 10
403342.8650901297
 20
4592288.65490672
 30
0.1047909781336784
 70
    32
  0
SEQEND
  5
195
330
18F
100
AcDbEntity
  8
0
370
     0
  0
POLYLINE
  5
196
330
1F
100
AcDbEntity
  8
0
370
     0
100
AcDb3dPolyline
 66
     1
 10
0.0
 20
0.0
 30
0.0
 70
     8
  0
VERTEX
  5
197
330
196
100
AcDbEntity
  8
0
370
     0
100
AcDbVertex
100
AcDb3dPolylineVertex
 10
403342.3091122026
 20
4592285.141152333
 30
0.2522620558738708
 70
    32
  0
VERTEX
  5
198
330
196
100
AcDbEntity
  8
0
370
     0
100
AcDbVertex
100
AcDb3dPolylineVertex
 10
403344.9615641317
 20
4592272.963912874
 30
0.2522620558738708
 70
    32
  0
VERTEX
  5
199
330
196
100
AcDbEntity
  8
0
370
     0
100
AcDbVertex
100
AcDb3dPolylineVertex
 10
403347.8221350107
 20
4592259.831212445
 30
0.2522620558738708
 70
    32
  0
VERTEX
  5
19A
330
196
100
AcDbEntity
  8
0
370
     0
100
AcDbVertex
100
AcDb3dPolylineVertex
 10
403351.2419488911
 20
4592260.57608573
 30
0.2522620558738708
 70
    32
  0
SEQEND
  5
19B
330
196
100
AcDbEntity
  8
0
370
     0
  0
LINE
  5
19C
330
1F
100
AcDbEntity
  8
0
370
     0
100
AcDbLine
 10
403505.1586310621
 20
4592418.968205949
 30
-80.9063720703125
 11
403506.4435843838
 21
4592415.71265547
 31
-80.88946533203125
  0
POLYLINE
  5
1E9
330
1F
100
AcDbEntity
  8
0
370
     0
100
AcDb3dPolyline
 66
     1
 10
0.0
 20
0.0
 30
0.0
 70
     8
  0
VERTEX
  5
1EA
330
1E9
100
AcDbEntity
  8
0
370
     0
100
AcDbVertex
100
AcDb3dPolylineVertex
 10
403503.3012461313
 20
4592443.722865584
 30
-81.92666625976562
 70
    32
  0
VERTEX
  5
1EB
330
1E9
100
AcDbEntity
  8
0
370
     0
100
AcDbVertex
100
AcDb3dPolylineVertex
 10
403515.2408012675
 20
4592438.173262184
 30
-81.92666625976562
 70
    32
  0
VERTEX
  5
1EC
330
1E9
100
AcDbEntity
  8
0
370
     0
100
AcDbVertex
100
AcDb3dPolylineVertex
 10
403523.8518129094
 20
4592436.226687357
 30
-81.92666625976562
 70
    32
  0
VERTEX
  5
1ED
330
1E9
100
AcDbEntity
  8
0
370
     0
100
AcDbVertex
100
AcDb3dPolylineVertex
 10
403535.790308314
 20
4592431.969969081
 30
-81.92666625976562
 70
    32
  0
VERTEX
  5
1EE
330
1E9
100
AcDbEntity
  8
0
370
     0
100
AcDbVertex
100
AcDb3dPolylineVertex
 10
403562.7654769605
 20
4592439.944506178
 30
-81.92666625976562
 70
    32
  0
VERTEX
  5
1EF
330
1E9
100
AcDbEntity
  8
0
370
     0
100
AcDbVertex
100
AcDb3dPolylineVertex
 10
403579.5376633045
 20
4592434.158633544
 30
-81.92666625976562
 70
    32
  0
VERTEX
  5
1F0
330
1E9
100
AcDbEntity
  8
0
370
     0
100
AcDbVertex
100
AcDb3dPolylineVertex
 10
403591.3589409429
 20
4592433.884926291
 30
-81.92666625976562
 70
    32
  0
SEQEND
  5
1F1
330
1E9
100
AcDbEntity
  8
0
370
     0
  0
POLYLINE
  5
1F2
330
1F
100
AcDbEntity
  8
0
370
     0
100
AcDb3dPolyline
 66
     1
 10
0.0
 20
0.0
 30
0.0
 70
     8
  0
VERTEX
  5
1F3
330
1F2
100
AcDbEntity
  8
0
370
     0
100
AcDbVertex
100
AcDb3dPolylineVertex
 10
403385.178008448
 20
4592451.374688119
 30
-80.77001953125
 70
    32
  0
VERTEX
  5
1F4
330
1F2
100
AcDbEntity
  8
0
370
     0
100
AcDbVertex
100
AcDb3dPolylineVertex
 10
403413.3970061525
 20
4592455.055542692
 30
-80.77001953125
 70
    32
  0
VERTEX
  5
1F5
330
1F2
100
AcDbEntity
  8
0
370
     0
100
AcDbVertex
100
AcDb3dPolylineVertex
 10
403428.1794096932
 20
4592453.85683926
 30
-80.77001953125
 70
    32
  0
VERTEX
  5
1F6
330
1F2
100
AcDbEntity
  8
0
370
     0
100
AcDbVertex
100
AcDb3dPolylineVertex
 10
403434.674142566
 20
4592448.630556084
 30
-80.77001953125
 70
    32
  0
VERTEX
  5
1F7
330
1F2
100
AcDbEntity
  8
0
370
     0
100
AcDbVertex
100
AcDb3dPolylineVertex
 10
403444.9425204251
 20
4592448.879129532
 30
-80.77001953125
 70
    32
  0
VERTEX
  5
1F8
330
1F2
100
AcDbEntity
  8
0
370
     0
100
AcDbVertex
100
AcDb3dPolylineVertex
 10
403455.5838497222
 20
4592447.778052173
 30
-80.77001953125
 70
    32
  0
VERTEX
  5
1F9
330
1F2
100
AcDbEntity
  8
0
370
     0
100
AcDbVertex
100
AcDb3dPolylineVertex
 10
403468.355098186
 20
4592449.829408607
 30
-80.77001953125
 70
    32
  0
VERTEX
  5
1FA
330
1F2
100
AcDbEntity
  8
0
370
     0
100
AcDbVertex
100
AcDb3dPolylineVertex
 10
403474.9740460709
 20
4592448.400533533
 30
-80.77001953125
 70
    32
  0
VERTEX
  5
1FB
330
1F2
100
AcDbEntity
  8
0
370
     0
100
AcDbVertex
100
AcDb3dPolylineVertex
 10
403483.8546120224
 20
4592449.35234225
 30
-80.77001953125
 70
    32
  0
VERTEX
  5
1FC
330
1F2
100
AcDbEntity
  8
0
370
     0
100
AcDbVertex
100
AcDb3dPolylineVertex
 10
403490.951157997
 20
4592449.217319792
 30
-80.77001953125
 70
    32
  0
VERTEX
  5
1FD
330
1F2
100
AcDbEntity
  8
0
370
     0
100
AcDbVertex
100
AcDb3dPolylineVertex
 10
403500.0294137893
 20
4592445.212622271
 30
-80.77001953125
 70
    32
  0
SEQEND
  5
1FE
330
1F2
100
AcDbEntity
  8
0
370
     0
  0
LINE
  5
2DE
330
1F
100
AcDbEntity
  8
GEOFENCE
 62
     3
100
AcDbLine
 10
403109.8085350686
 20
4592294.291488264
 30
51.26374626159668
 11
403119.6323850226
 21
4592292.422806353
 31
51.26374626159668
  0
LINE
  5
2E1
330
1F
100
AcDbEntity
  8
GEOFENCE
 62
     3
100
AcDbLine
 10
403119.6323850226
 20
4592292.422806353
 30
51.26374626159668
 11
403134.3469395494
 21
4592286.13934512
 31
51.26374626159668
  0
LINE
  5
2E2
330
1F
100
AcDbEntity
  8
GEOFENCE
 62
     3
100
AcDbLine
 10
403134.3469395494
 20
4592286.13934512
 30
51.26374626159668
 11
403115.9392945654
 21
4592275.82644779
 31
51.05872344970703
  0
LINE
  5
2E6
330
1F
100
AcDbEntity
  8
GEOFENCE
 62
     3
100
AcDbLine
 10
403134.3469395494
 20
4592286.13934512
 30
51.26374626159668
 11
403149.6379171088
 21
4592281.733965958
 31
51.46254348754883
  0
LINE
  5
2E8
330
1F
100
AcDbEntity
  8
GEOFENCE
 62
     3
100
AcDbLine
 10
403149.6379171088
 20
4592281.733965958
 30
51.46254348754883
 11
403160.921966881
 21
4592271.851141426
 31
51.46254348754883
  0
LINE
  5
2EB
330
1F
100
AcDbEntity
  8
GEOFENCE
 62
     3
100
AcDbLine
 10
403160.921966881
 20
4592271.851141426
 30
51.46254348754883
 11
403169.9492066978
 21
4592263.944881799
 31
51.46254348754883
  0
LINE
  5
2EC
330
1F
100
AcDbEntity
  8
GEOFENCE
 62
     3
100
AcDbLine
 10
403169.9492066978
 20
4592263.944881799
 30
51.46254348754883
 11
403184.7048167548
 21
4592266.641541185
 31
51.46254348754883
  0
LINE
  5
2EE
330
1F
100
AcDbEntity
  8
GEOFENCE
 62
     3
100
AcDbLine
 10
403184.7048167548
 20
4592266.641541185
 30
51.46254348754883
 11
403201.3913504527
 21
4592269.891093947
 31
51.46254348754883
  0
LINE
  5
2EF
330
1F
100
AcDbEntity
  8
GEOFENCE
 62
     3
100
AcDbLine
 10
403201.3913504527
 20
4592269.891093947
 30
51.46254348754883
 11
403207.658150572
 21
4592256.274292259
 31
52.01925531311623
  0
LINE
  5
2F1
330
1F
100
AcDbEntity
  8
GEOFENCE
 62
     3
100
AcDbLine
 10
403207.658150572
 20
4592256.274292259
 30
52.01925531311623
 11
403214.3502304954
 21
4592246.313599029
 31
52.04488058919912
  0
LINE
  5
2F4
330
1F
100
AcDbEntity
  8
GEOFENCE
 62
     3
100
AcDbLine
 10
403214.3502304954
 20
4592246.313599029
 30
52.04488058919912
 11
403226.2057712186
 21
4592248.169980946
 31
52.04429825506516
  0
LINE
  5
2F5
330
1F
100
AcDbEntity
  8
GEOFENCE
 62
     3
100
AcDbLine
 10
403201.3913504527
 20
4592269.891093947
 30
51.46254348754883
 11
403211.1662448988
 21
4592272.000074992
 31
51.52285533671873
  0
LINE
  5
2F7
330
1F
100
AcDbEntity
  8
GEOFENCE
 62
     3
100
AcDbLine
 10
403211.1662448988
 20
4592272.000074992
 30
51.52285533671873
 11
403226.0374723686
 21
4592271.636795365
 31
49.5955200117318
  0
LINE
  5
2F9
330
1F
100
AcDbEntity
  8
GEOFENCE
 62
     3
100
AcDbLine
 10
403226.0374723686
 20
4592271.636795365
 30
49.5955200117318
 11
403230.962136618
 21
4592271.648745042
 31
50.46012352543991
  0
LINE
  5
2FA
330
1F
100
AcDbEntity
  8
GEOFENCE
 62
     3
100
AcDbLine
 10
403230.962136618
 20
4592271.648745042
 30
50.46012352543991
 11
403227.2270633444
 21
4592263.064707999
 31
53.97630549956651
  0
LINE
  5
2FB
330
1F
100
AcDbEntity
  8
GEOFENCE
 62
     3
100
AcDbLine
 10
403227.2270633444
 20
4592263.064707999
 30
53.97630549956651
 11
403226.0008066026
 21
4592253.140533647
 31
54.0603163711767
  0
LINE
  5
2FC
330
1F
100
AcDbEntity
  8
GEOFENCE
 62
     3
100
AcDbLine
 10
403226.0374723686
 20
4592271.636795365
 30
49.5955200117318
 11
403232.1570867149
 21
4592279.215295512
 31
47.33351741026217
  0
LINE
  5
2FD
330
1F
100
AcDbEntity
  8
GEOFENCE
 62
     3
100
AcDbLine
 10
403232.1570867149
 20
4592279.215295512
 30
47.33351741026217
 11
403234.5079069226
 21
4592288.934622685
 31
47.2422833144506
  0
LINE
  5
2FE
330
1F
100
AcDbEntity
  8
GEOFENCE
 62
     3
100
AcDbLine
 10
403234.5079069226
 20
4592288.934622685
 30
47.2422833144506
 11
403232.5640157939
 21
4592303.808132268
 31
47.24227143069567
  0
LINE
  5
301
330
1F
100
AcDbEntity
  8
GEOFENCE
 62
     3
100
AcDbLine
 10
403232.5640157939
 20
4592303.808132268
 30
47.24227143069567
 11
403231.9160520842
 21
4592308.765968795
 31
47.24226746944403
  0
LINE
  5
302
330
1F
100
AcDbEntity
  8
GEOFENCE
 62
     3
100
AcDbLine
 10
403231.235805121
 20
4592313.563090978
 30
0.732302188873291
 11
403265.4228328548
 21
4592310.076558191
 31
0.7310393452644348
  0
LINE
  5
308
330
1F
100
AcDbEntity
  8
GEOFENCE
 62
     3
100
AcDbLine
 10
403226.7236169939
 20
4592248.330959124
 30
0.0072553921490907
 11
403273.1361359545
 21
4592266.928756944
 31
0.0072553921490908
  0
LINE
  5
309
330
1F
100
AcDbEntity
  8
GEOFENCE
 62
     3
100
AcDbLine
 10
403273.1361359545
 20
4592266.928756944
 30
0.0072553921490908
 11
403319.5486549152
 21
4592285.526554763
 31
0.0072553921490907
  0
LINE
  5
30D
330
1F
100
AcDbEntity
  8
GEOFENCE
 62
     3
100
AcDbLine
 10
403319.5486549152
 20
4592285.526554763
 30
0.0072553921490907
 11
403328.8311587074
 21
4592289.246114327
 31
0.0072553921490907
  0
LINE
  5
30F
330
1F
100
AcDbEntity
  8
GEOFENCE
 62
     3
100
AcDbLine
 10
403328.8311587074
 20
4592289.246114327
 30
0.0072553921490907
 11
403333.7888523628
 21
4592289.893572362
 31
0.0527714514141835
  0
LINE
  5
310
330
1F
100
AcDbEntity
  8
GEOFENCE
 62
     3
100
AcDbLine
 10
403333.7888523628
 20
4592289.893572362
 30
0.0527714514141835
 11
403343.2543555878
 21
4592286.670849182
 31
0.188063713034475
  0
LINE
  5
311
330
1F
100
AcDbEntity
  8
GEOFENCE
 62
     3
100
AcDbLine
 10
403343.2543555878
 20
4592286.670849182
 30
0.188063713034475
 11
403347.1161574712
 21
4592295.894912205
 31
0.1319605437155947
  0
LINE
  5
312
330
1F
100
AcDbEntity
  8
GEOFENCE
 62
     3
100
AcDbLine
 10
403347.1161574712
 20
4592295.894912205
 30
0.1319605437155947
 11
403348.2468931283
 21
4592300.400660239
 31
0.1047909781336784
  0
LINE
  5
315
330
1F
100
AcDbEntity
  8
GEOFENCE
 62
     3
100
AcDbLine
 10
403343.2543555878
 20
4592286.670849182
 30
0.188063713034475
 11
403346.16108515
 21
4592276.061907813
 31
0.2239285135539984
  0
LINE
  5
316
330
1F
100
AcDbEntity
  8
GEOFENCE
 62
     3
100
AcDbLine
 10
403346.16108515
 20
4592276.061907813
 30
0.2239285135539984
 11
403349.5320419508
 21
4592260.203649088
 31
0.2522620558738708
  0
LINE
  5
31A
330
1F
100
AcDbEntity
  8
GEOFENCE
 62
     3
100
AcDbLine
 10
403346.16108515
 20
4592276.061907813
 30
0.2239285135539984
 11
403353.0162658248
 21
4592279.59567502
 31
0.1928200274705887
  0
LINE
  5
320
330
1F
100
AcDbEntity
  8
GEOFENCE
 62
     3
100
AcDbLine
 10
403353.0162658243
 20
4592279.59567502
 30
-81.09080505371094
 11
403392.6873488392
 21
4592310.029294134
 31
-81.09080505371094
  0
LINE
  5
321
330
1F
100
AcDbEntity
  8
GEOFENCE
 62
     3
100
AcDbLine
 10
403392.6873488392
 20
4592310.029294134
 30
-81.09080505371094
 11
403424.4242152511
 21
4592334.376189427
 31
-81.09080505371094
  0
LINE
  5
322
330
1F
100
AcDbEntity
  8
GEOFENCE
 62
     3
100
AcDbLine
 10
403424.4242152511
 20
4592334.376189427
 30
-81.09080505371094
 11
403464.0952982667
 21
4592364.80980854
 31
-81.09080505371094
  0
LINE
  5
326
330
1F
100
AcDbEntity
  8
GEOFENCE
 62
     3
100
AcDbLine
 10
403464.0952982667
 20
4592364.80980854
 30
-81.09080505371094
 11
403490.278213057
 21
4592384.895997155
 31
-81.09080505371094
  0
LINE
  5
327
330
1F
100
AcDbEntity
  8
GEOFENCE
 62
     3
100
AcDbLine
 10
403490.278213057
 20
4592384.895997155
 30
-81.09080505371094
 11
403493.9194304436
 21
4592404.560219692
 31
-80.84608488144345
  0
LINE
  5
328
330
1F
100
AcDbEntity
  8
GEOFENCE
 62
     3
100
AcDbLine
 10
403493.9194304436
 20
4592404.560219692
 30
-80.84608488144345
 11
403497.6833477663
 21
4592424.202832704
 31
-80.81999989766148
  0
LINE
  5
32A
330
1F
100
AcDbEntity
  8
GEOFENCE
 62
     3
100
AcDbLine
 10
403497.6833477663
 20
4592424.202832704
 30
-80.81999989766148
 11
403501.9237669858
 21
4592445.78296914
 31
-81.38263320274129
  0
LINE
  5
32B
330
1F
100
AcDbEntity
  8
GEOFENCE
 62
     3
100
AcDbLine
 10
403501.9237669858
 20
4592445.78296914
 30
-81.38263320274129
 11
403515.7064792739
 21
4592439.882755673
 31
-81.85626071629189
  0
LINE
  5
32C
330
1F
100
AcDbEntity
  8
GEOFENCE
 62
     3
100
AcDbLine
 10
403515.7064792739
 20
4592439.882755673
 30
-81.85626071629189
 11
403525.4553208476
 21
4592437.655633714
 31
-81.86022952072057
  0
LINE
  5
32E
330
1F
100
AcDbEntity
  8
GEOFENCE
 62
     3
100
AcDbLine
 10
403525.4553208476
 20
4592437.655633714
 30
-81.86022952072057
 11
403535.8408513359
 21
4592433.809777865
 31
-81.85977554321289
  0
LINE
  5
335
330
1F
100
AcDbEntity
  8
GEOFENCE
 62
     3
100
AcDbLine
 10
403535.8408513359
 20
4592433.809777865
 30
-81.85977554321289
 11
403562.6921023513
 21
4592441.747681802
 31
-81.85977554321289
  0
LINE
  5
336
330
1F
100
AcDbEntity
  8
GEOFENCE
 62
     3
100
AcDbLine
 10
403562.6921023513
 20
4592441.747681802
 30
-81.85977554321289
 11
403572.1688735668
 21
4592438.555377411
 31
-81.85977554321289
  0
LINE
  5
337
330
1F
100
AcDbEntity
  8
GEOFENCE
 62
     3
100
AcDbLine
 10
403572.1688735668
 20
4592438.555377411
 30
-81.85977554321289
 11
403581.5385705077
 21
4592435.326112826
 31
-80.52537324943049
  0
LINE
  5
338
330
1F
100
AcDbEntity
  8
GEOFENCE
 62
     3
100
AcDbLine
 10
403581.5385705077
 20
4592435.326112826
 30
-80.52537324943049
 11
403591.3993206669
 21
4592435.634433473
 31
-81.93636703491211
  0
LINE
  5
339
330
1F
100
AcDbEntity
  8
GEOFENCE
 62
     3
100
AcDbLine
 10
403581.5385705077
 20
4592435.326112826
 30
-80.52537324943049
 11
403582.2461270151
 21
4592440.241591129
 31
-81.10626639640522
  0
LINE
  5
33C
330
1F
100
AcDbEntity
  8
GEOFENCE
 62
     3
100
AcDbLine
 10
403582.2461270151
 20
4592440.241591129
 30
-81.10626639640522
 11
403590.2428162114
 21
4592449.081922554
 31
-79.72731673216218
  0
LINE
  5
340
330
1F
100
AcDbEntity
  8
GEOFENCE
 62
     3
100
AcDbLine
 10
403590.2428162114
 20
4592449.081922554
 30
-79.72731673216218
 11
403596.0750669679
 21
4592470.294636601
 31
-79.65239080941059
  0
LINE
  5
342
330
1F
100
AcDbEntity
  8
GEOFENCE
 62
     3
100
AcDbLine
 10
403596.0750669679
 20
4592470.294636601
 30
-79.65239080941059
 11
403605.8395079348
 21
4592471.983992429
 31
-78.31009073484263
  0
LINE
  5
344
330
1F
100
AcDbEntity
  8
GEOFENCE
 62
     3
100
AcDbLine
 10
403605.8395079348
 20
4592471.983992429
 30
-78.31009073484263
 11
403615.7981900769
 21
4592471.094300275
 31
-78.49201891387126
  0
LINE
  5
345
330
1F
100
AcDbEntity
  8
GEOFENCE
 62
     3
100
AcDbLine
 10
403615.7981900769
 20
4592471.094300275
 30
-78.49201891387126
 11
403623.7556174146
 21
4592470.676250733
 31
-78.46354293823242
  0
LINE
  5
347
330
1F
100
AcDbEntity
  8
GEOFENCE
 62
     3
100
AcDbLine
 10
403501.9237669858
 20
4592445.78296914
 30
-81.38263320274129
 11
403491.1439288485
 21
4592451.0540675
 31
-81.27961954480777
  0
LINE
  5
348
330
1F
100
AcDbEntity
  8
GEOFENCE
 62
     3
100
AcDbLine
 10
403491.1439288485
 20
4592451.0540675
 30
-81.27961954480777
 11
403481.1441597907
 21
4592451.121983634
 31
-81.28210733910468
  0
LINE
  5
34B
330
1F
100
AcDbEntity
  8
GEOFENCE
 62
     3
100
AcDbLine
 10
403481.1441597907
 20
4592451.121983634
 30
-81.28210733910468
 11
403475.0676729704
 21
4592450.170578413
 31
-81.28145217895508
  0
LINE
  5
34E
330
1F
100
AcDbEntity
  8
GEOFENCE
 62
     3
100
AcDbLine
 10
403475.0676729704
 20
4592450.170578413
 30
-81.28145217895508
 11
403468.4024660957
 21
4592451.609439716
 31
-81.28145217895508
  0
LINE
  5
350
330
1F
100
AcDbEntity
  8
GEOFENCE
 62
     3
100
AcDbLine
 10
403468.4024660957
 20
4592451.609439716
 30
-81.28145217895508
 11
403453.5922988123
 21
4592449.230585991
 31
-81.28145217895508
  0
LINE
  5
351
330
1F
100
AcDbEntity
  8
GEOFENCE
 62
     3
100
AcDbLine
 10
403453.5922988123
 20
4592449.230585991
 30
-81.28145217895508
 11
403443.722927459
 21
4592450.841644367
 31
-81.28145217895508
  0
LINE
  5
353
330
1F
100
AcDbEntity
  8
GEOFENCE
 62
     3
100
AcDbLine
 10
403443.722927459
 20
4592450.841644367
 30
-81.28145217895508
 11
403435.2720060461
 21
4592450.395520519
 31
-81.28145217895508
  0
LINE
  5
354
330
1F
100
AcDbEntity
  8
GEOFENCE
 62
     3
100
AcDbLine
 10
403435.2720060461
 20
4592450.395520519
 30
-81.28145217895508
 11
403428.857062088
 21
4592455.557597903
 31
-81.28145217895508
  0
LINE
  5
356
330
1F
100
AcDbEntity
  8
GEOFENCE
 62
     3
100
AcDbLine
 10
403428.857062088
 20
4592455.557597903
 30
-81.28145217895508
 11
403413.9061369719
 21
4592456.76996673
 31
-81.28145217895508
  0
LINE
  5
359
330
1F
100
AcDbEntity
  8
GEOFENCE
 62
     3
100
AcDbLine
 10
403413.9061369719
 20
4592456.76996673
 30
-81.28145217895508
 11
403384.0731175126
 21
4592453.003820954
 31
-78.95595169067383
  0
LINE
  5
366
330
1F
100
AcDbEntity
  8
GEOFENCE
 62
     3
100
AcDbLine
 10
403384.0731175126
 20
4592453.003820954
 30
-78.95595169067383
 11
403384.6127918015
 21
4592448.975550404
 31
-76.04360074393801
  0
LINE
  5
367
330
1F
100
AcDbEntity
  8
GEOFENCE
 62
     3
100
AcDbLine
 10
403384.6127918015
 20
4592448.975550404
 30
-76.04360074393801
 11
403388.9793425334
 21
4592435.506384372
 31
-71.09235836475786
  0
LINE
  5
368
330
1F
100
AcDbEntity
  8
GEOFENCE
 62
     3
100
AcDbLine
 10
403388.9793425334
 20
4592435.506384372
 30
-71.09235836475786
 11
403390.4280905251
 21
4592431.440374942
 31
-68.56873070271502
  0
LINE
  5
369
330
1F
100
AcDbEntity
  8
GEOFENCE
 62
     3
100
AcDbLine
 10
403390.4280905251
 20
4592431.440374942
 30
-68.56873070271502
 11
403387.2576960104
 21
4592415.916311556
 31
-66.61539077758789
  0
POINT
  5
372
330
1F
100
AcDbEntity
  8
INIT_COORD
 62
     3
100
AcDbPoint
 10
403109.8085350686
 20
4592294.291488264
 30
51.26374626159668
  0
ENDSEC
  0
SECTION
  2
OBJECTS
  0
DICTIONARY
  5
C
330
0
100
AcDbDictionary
281
     1
  3
ACAD_DETAILVIEWSTYLE
350
2D2
  3
ACAD_GROUP
350
D
  3
ACAD_IMAGE_VARS
350
215
  3
ACAD_LAYOUT
350
1A
  3
ACAD_MATERIAL
350
3B
  3
ACAD_MLEADERSTYLE
350
206
  3
ACAD_MLINESTYLE
350
17
  3
ACAD_PLOTSETTINGS
350
19
  3
ACAD_PLOTSTYLENAME
350
E
  3
ACAD_SCALELIST
350
1AA
  3
ACAD_SECTIONVIEWSTYLE
350
2D3
  3
ACAD_TABLESTYLE
350
205
  3
ACAD_VISUALSTYLE
350
2A
  3
ACDB_RECOMPOSE_DATA
350
375
  3
AcDbVariableDictionary
350
203
  3
APPDATA
350
213
  0
SUN
  5
214
330
29
100
AcDbSun
 90
        1
290
     0
 63
     7
421
 16777215
 40
1.0
291
     1
 91
  2455826
 92
 54000000
292
     0
 70
     2
 71
   256
280
     1
  0
DICTIONARY
  5
216
330
2
100
AcDbDictionary
280
     1
281
     1
  3
ACAD_LAYERSTATES
360
217
  3
ACLYDICTIONARY
360
2DC
  0
DICTIONARY
  5
2D2
102
{ACAD_REACTORS
330
C
102
}
330
C
100
AcDbDictionary
281
     1
  0
DICTIONARY
  5
D
102
{ACAD_REACTORS
330
C
102
}
330
C
100
AcDbDictionary
281
     1
  0
RASTERVARIABLES
  5
215
102
{ACAD_REACTORS
330
C
102
}
330
C
100
AcDbRasterVariables
 90
        0
 70
     1
 71
     1
 72
     1
  0
DICTIONARY
  5
1A
102
{ACAD_REACTORS
330
C
102
}
330
C
100
AcDbDictionary
281
     1
  3
Layout1
350
1E
  3
Layout2
350
26
  3
Model
350
22
  0
DICTIONARY
  5
3B
102
{ACAD_REACTORS
330
C
102
}
330
C
100
AcDbDictionary
281
     1
  3
ByBlock
350
3D
  3
ByLayer
350
3C
  3
Global
350
3E
  0
DICTIONARY
  5
206
102
{ACAD_REACTORS
330
C
102
}
330
C
100
AcDbDictionary
281
     1
  3
Standard
350
212
  0
DICTIONARY
  5
17
102
{ACAD_REACTORS
330
C
102
}
330
C
100
AcDbDictionary
281
     1
  3
Standard
350
18
  0
DICTIONARY
  5
19
102
{ACAD_REACTORS
330
C
102
}
330
C
100
AcDbDictionary
281
     1
  0
ACDBDICTIONARYWDFLT
  5
E
102
{ACAD_REACTORS
330
C
102
}
330
C
100
AcDbDictionary
281
     1
  3
Normal
350
F
100
AcDbDictionaryWithDefault
340
F
  0
DICTIONARY
  5
1AA
102
{ACAD_REACTORS
330
C
102
}
330
C
100
AcDbDictionary
281
     1
  3
A0
350
1AB
  3
A1
350
1AC
  3
A2
350
1AD
  3
A3
350
1AE
  3
A4
350
1AF
  3
A5
350
1B0
  3
A6
350
1B1
  3
A7
350
1B2
  3
A8
350
1B3
  3
A9
350
1B4
  3
B0
350
1B5
  3
B1
350
1B6
  3
B2
350
1B7
  3
B3
350
1B8
  3
B4
350
1B9
  3
B5
350
1BA
  3
B6
350
1BB
  3
B7
350
1BC
  3
B8
350
1BD
  3
B9
350
1BE
  3
C0
350
1BF
  3
C1
350
1C0
  3
C2
350
1C1
  3
C3
350
1C2
  3
C4
350
1C3
  3
C5
350
1C4
  3
C6
350
1C5
  3
C7
350
1C6
  3
C8
350
1C7
  3
C9
350
1C8
  3
D0
350
1C9
  3
D1
350
1CA
  3
D2
350
1CB
  0
DICTIONARY
  5
2D3
102
{ACAD_REACTORS
330
C
102
}
330
C
100
AcDbDictionary
281
     1
  0
DICTIONARY
  5
205
102
{ACAD_REACTORS
330
C
102
}
330
C
100
AcDbDictionary
281
     1
  3
Standard
350
211
  0
DICTIONARY
  5
2A
102
{ACAD_REACTORS
330
C
102
}
330
C
100
AcDbDictionary
281
     1
  3
2dWireframe
350
2F
  3
3D Hidden
350
31
  3
3dWireframe
350
30
  3
Basic
350
32
  3
Brighten
350
36
  3
ColorChange
350
3A
  3
Conceptual
350
34
  3
Dim
350
35
  3
EdgeColorOff
350
20B
  3
Facepattern
350
39
  3
Flat
350
2B
  3
FlatWithEdges
350
2C
  3
Gouraud
350
2D
  3
GouraudWithEdges
350
2E
  3
Hidden
350
208
  3
JitterOff
350
209
  3
Linepattern
350
38
  3
OverhangOff
350
20A
  3
Realistic
350
33
  3
Shaded
350
210
  3
Shaded with edges
350
20F
  3
Shades of Gray
350
20C
  3
Sketchy
350
20D
  3
Thicken
350
37
  3
Wireframe
350
207
  3
X-Ray
350
20E
  0
XRECORD
  5
375
102
{ACAD_REACTORS
330
C
102
}
330
C
100
AcDbXrecord
280
     1
 90
        1
330
211
  0
DICTIONARY
  5
203
102
{ACAD_REACTORS
330
C
102
}
330
C
100
AcDbDictionary
281
     1
  3
CANNOSCALE
350
204
  3
CMLEADERSTYLE
350
2D1
  3
CTABLESTYLE
350
2D0
  0
DICTIONARY
  5
213
102
{ACAD_REACTORS
330
C
102
}
330
C
100
AcDbDictionary
281
     1
  0
DICTIONARY
  5
217
102
{ACAD_REACTORS
330
216
102
}
330
216
100
AcDbDictionary
281
     1
  0
DICTIONARY
  5
2DC
102
{ACAD_REACTORS
330
216
102
}
330
216
100
AcDbDictionary
281
     1
1001
ACAD
1000
<All
  0
LAYOUT
  5
1E
102
{ACAD_REACTORS
330
1A
102
}
330
1A
100
AcDbPlotSettings
  1

  2
none_device
  4

  6

 40
0.0
 41
0.0
 42
0.0
 43
0.0
 44
0.0
 45
0.0
 46
0.0
 47
0.0
 48
0.0
 49
0.0
140
0.0
141
0.0
142
1.0
143
1.0
 70
   688
 72
     0
 73
     0
 74
     5
  7

 75
    16
 76
     0
 77
     2
 78
   300
147
1.0
148
0.0
149
0.0
100
AcDbLayout
  1
Layout1
 70
     1
 71
     1
 10
0.0
 20
0.0
 11
420.0
 21
297.0
 12
0.0
 22
0.0
 32
0.0
 14
1.000000000000000E+20
 24
1.000000000000000E+20
 34
1.000000000000000E+20
 15
-1.000000000000000E+20
 25
-1.000000000000000E+20
 35
-1.000000000000000E+20
146
0.0
 13
0.0
 23
0.0
 33
0.0
 16
1.0
 26
0.0
 36
0.0
 17
0.0
 27
1.0
 37
0.0
 76
     0
330
1B
  0
LAYOUT
  5
26
102
{ACAD_REACTORS
330
1A
102
}
330
1A
100
AcDbPlotSettings
  1

  2
none_device
  4

  6

 40
0.0
 41
0.0
 42
0.0
 43
0.0
 44
0.0
 45
0.0
 46
0.0
 47
0.0
 48
0.0
 49
0.0
140
0.0
141
0.0
142
1.0
143
1.0
 70
   688
 72
     0
 73
     0
 74
     5
  7

 75
    16
 76
     0
 77
     2
 78
   300
147
1.0
148
0.0
149
0.0
100
AcDbLayout
  1
Layout2
 70
     1
 71
     2
 10
0.0
 20
0.0
 11
0.0
 21
0.0
 12
0.0
 22
0.0
 32
0.0
 14
0.0
 24
0.0
 34
0.0
 15
0.0
 25
0.0
 35
0.0
146
0.0
 13
0.0
 23
0.0
 33
0.0
 16
1.0
 26
0.0
 36
0.0
 17
0.0
 27
1.0
 37
0.0
 76
     0
330
23
  0
LAYOUT
  5
22
102
{ACAD_REACTORS
330
1A
102
}
330
1A
100
AcDbPlotSettings
  1

  2
none_device
  4

  6

 40
0.0
 41
0.0
 42
0.0
 43
0.0
 44
0.0
 45
0.0
 46
0.0
 47
0.0
 48
0.0
 49
0.0
140
0.0
141
0.0
142
1.0
143
1.0
 70
  1712
 72
     0
 73
     0
 74
     0
  7

 75
     0
 76
     0
 77
     2
 78
   300
147
1.0
148
0.0
149
0.0
100
AcDbLayout
  1
Model
 70
     1
 71
     0
 10
0.0
 20
0.0
 11
420.0
 21
297.0
 12
0.0
 22
0.0
 32
0.0
 14
403109.4814717314
 24
4592244.26723972
 34
-81.9460678100586
 15
403623.8622633271
 25
4592473.541298385
 35
56.54635620117188
146
0.0
 13
0.0
 23
0.0
 33
0.0
 16
1.0
 26
0.0
 36
0.0
 17
0.0
 27
1.0
 37
0.0
 76
     0
330
1F
331
29
  0
MATERIAL
  5
3D
102
{ACAD_REACTORS
330
3B
102
}
330
3B
100
AcDbMaterial
  1
ByBlock
 72
     1
 94
      127
  0
MATERIAL
  5
3C
102
{ACAD_REACTORS
330
3B
102
}
330
3B
100
AcDbMaterial
  1
ByLayer
 72
     1
 94
      127
  0
MATERIAL
  5
3E
102
{ACAD_REACTORS
330
3B
102
}
330
3B
100
AcDbMaterial
  1
Global
 72
     1
 94
      127
  0
MLEADERSTYLE
  5
212
102
{ACAD_REACTORS
330
206
102
}
330
206
100
AcDbMLeaderStyle
179
     2
170
     2
171
     1
172
     0
 90
        2
 40
0.0
 41
0.0
173
     1
 91
-1056964608
340
14
 92
       -2
290
     1
 42
2.0
291
     1
 43
8.0
  3
Standard
341
0
 44
4.0
300

342
11
174
     1
178
     1
175
     1
176
     0
 93
-1056964608
 45
4.0
292
     0
297
     0
 46
4.0
343
0
 94
-1056964608
 47
1.0
 49
1.0
140
1.0
293
     1
141
0.0
294
     1
177
     0
142
1.0
295
     0
296
     0
143
3.75
271
     0
272
     9
273
     9
  0
MLINESTYLE
  5
18
102
{ACAD_REACTORS
330
17
102
}
330
17
100
AcDbMlineStyle
  2
Standard
 70
     0
  3

 62
   256
 51
90.0
 52
90.0
 71
     2
 49
0.5
 62
   256
  6
BYLAYER
 49
-0.5
 62
   256
  6
BYLAYER
  0
ACDBPLACEHOLDER
  5
F
102
{ACAD_REACTORS
330
E
102
}
330
E
  0
SCALE
  5
1AB
102
{ACAD_REACTORS
330
1AA
102
}
330
1AA
100
AcDbScale
 70
     0
300
1:1
140
1.0
141
1.0
290
     1
  0
SCALE
  5
1AC
102
{ACAD_REACTORS
330
1AA
102
}
330
1AA
100
AcDbScale
 70
     0
300
1:2
140
1.0
141
2.0
290
     0
  0
SCALE
  5
1AD
102
{ACAD_REACTORS
330
1AA
102
}
330
1AA
100
AcDbScale
 70
     0
300
1:4
140
1.0
141
4.0
290
     0
  0
SCALE
  5
1AE
102
{ACAD_REACTORS
330
1AA
102
}
330
1AA
100
AcDbScale
 70
     0
300
1:5
140
1.0
141
5.0
290
     0
  0
SCALE
  5
1AF
102
{ACAD_REACTORS
330
1AA
102
}
330
1AA
100
AcDbScale
 70
     0
300
1:8
140
1.0
141
8.0
290
     0
  0
SCALE
  5
1B0
102
{ACAD_REACTORS
330
1AA
102
}
330
1AA
100
AcDbScale
 70
     0
300
1:10
140
1.0
141
10.0
290
     0
  0
SCALE
  5
1B1
102
{ACAD_REACTORS
330
1AA
102
}
330
1AA
100
AcDbScale
 70
     0
300
1:16
140
1.0
141
16.0
290
     0
  0
SCALE
  5
1B2
102
{ACAD_REACTORS
330
1AA
102
}
330
1AA
100
AcDbScale
 70
     0
300
1:20
140
1.0
141
20.0
290
     0
  0
SCALE
  5
1B3
102
{ACAD_REACTORS
330
1AA
102
}
330
1AA
100
AcDbScale
 70
     0
300
1:30
140
1.0
141
30.0
290
     0
  0
SCALE
  5
1B4
102
{ACAD_REACTORS
330
1AA
102
}
330
1AA
100
AcDbScale
 70
     0
300
1:40
140
1.0
141
40.0
290
     0
  0
SCALE
  5
1B5
102
{ACAD_REACTORS
330
1AA
102
}
330
1AA
100
AcDbScale
 70
     0
300
1:50
140
1.0
141
50.0
290
     0
  0
SCALE
  5
1B6
102
{ACAD_REACTORS
330
1AA
102
}
330
1AA
100
AcDbScale
 70
     0
300
1:100
140
1.0
141
100.0
290
     0
  0
SCALE
  5
1B7
102
{ACAD_REACTORS
330
1AA
102
}
330
1AA
100
AcDbScale
 70
     0
300
2:1
140
2.0
141
1.0
290
     0
  0
SCALE
  5
1B8
102
{ACAD_REACTORS
330
1AA
102
}
330
1AA
100
AcDbScale
 70
     0
300
4:1
140
4.0
141
1.0
290
     0
  0
SCALE
  5
1B9
102
{ACAD_REACTORS
330
1AA
102
}
330
1AA
100
AcDbScale
 70
     0
300
8:1
140
8.0
141
1.0
290
     0
  0
SCALE
  5
1BA
102
{ACAD_REACTORS
330
1AA
102
}
330
1AA
100
AcDbScale
 70
     0
300
10:1
140
10.0
141
1.0
290
     0
  0
SCALE
  5
1BB
102
{ACAD_REACTORS
330
1AA
102
}
330
1AA
100
AcDbScale
 70
     0
300
100:1
140
100.0
141
1.0
290
     0
  0
SCALE
  5
1BC
102
{ACAD_REACTORS
330
1AA
102
}
330
1AA
100
AcDbScale
 70
     0
300
1/128" = 1'-0"
140
0.0078125
141
12.0
290
     0
  0
SCALE
  5
1BD
102
{ACAD_REACTORS
330
1AA
102
}
330
1AA
100
AcDbScale
 70
     0
300
1/64" = 1'-0"
140
0.015625
141
12.0
290
     0
  0
SCALE
  5
1BE
102
{ACAD_REACTORS
330
1AA
102
}
330
1AA
100
AcDbScale
 70
     0
300
1/32" = 1'-0"
140
0.03125
141
12.0
290
     0
  0
SCALE
  5
1BF
102
{ACAD_REACTORS
330
1AA
102
}
330
1AA
100
AcDbScale
 70
     0
300
1/16" = 1'-0"
140
0.0625
141
12.0
290
     0
  0
SCALE
  5
1C0
102
{ACAD_REACTORS
330
1AA
102
}
330
1AA
100
AcDbScale
 70
     0
300
3/32" = 1'-0"
140
0.09375
141
12.0
290
     0
  0
SCALE
  5
1C1
102
{ACAD_REACTORS
330
1AA
102
}
330
1AA
100
AcDbScale
 70
     0
300
1/8" = 1'-0"
140
0.125
141
12.0
290
     0
  0
SCALE
  5
1C2
102
{ACAD_REACTORS
330
1AA
102
}
330
1AA
100
AcDbScale
 70
     0
300
3/16" = 1'-0"
140
0.1875
141
12.0
290
     0
  0
SCALE
  5
1C3
102
{ACAD_REACTORS
330
1AA
102
}
330
1AA
100
AcDbScale
 70
     0
300
1/4" = 1'-0"
140
0.25
141
12.0
290
     0
  0
SCALE
  5
1C4
102
{ACAD_REACTORS
330
1AA
102
}
330
1AA
100
AcDbScale
 70
     0
300
3/8" = 1'-0"
140
0.375
141
12.0
290
     0
  0
SCALE
  5
1C5
102
{ACAD_REACTORS
330
1AA
102
}
330
1AA
100
AcDbScale
 70
     0
300
1/2" = 1'-0"
140
0.5
141
12.0
290
     0
  0
SCALE
  5
1C6
102
{ACAD_REACTORS
330
1AA
102
}
330
1AA
100
AcDbScale
 70
     0
300
3/4" = 1'-0"
140
0.75
141
12.0
290
     0
  0
SCALE
  5
1C7
102
{ACAD_REACTORS
330
1AA
102
}
330
1AA
100
AcDbScale
 70
     0
300
1" = 1'-0"
140
1.0
141
12.0
290
     0
  0
SCALE
  5
1C8
102
{ACAD_REACTORS
330
1AA
102
}
330
1AA
100
AcDbScale
 70
     0
300
1-1/2" = 1'-0"
140
1.5
141
12.0
290
     0
  0
SCALE
  5
1C9
102
{ACAD_REACTORS
330
1AA
102
}
330
1AA
100
AcDbScale
 70
     0
300
3" = 1'-0"
140
3.0
141
12.0
290
     0
  0
SCALE
  5
1CA
102
{ACAD_REACTORS
330
1AA
102
}
330
1AA
100
AcDbScale
 70
     0
300
6" = 1'-0"
140
6.0
141
12.0
290
     0
  0
SCALE
  5
1CB
102
{ACAD_REACTORS
330
1AA
102
}
330
1AA
100
AcDbScale
 70
     0
300
1'-0" = 1'-0"
140
12.0
141
12.0
290
     0
  0
TABLESTYLE
  5
211
102
{ACAD_REACTORS
330
205
102
}
102
{ACAD_XDICTIONARY
360
373
102
}
330
205
100
AcDbTableStyle
  3
Standard
 70
     0
 71
     0
 40
0.06
 41
0.06
280
     0
281
     0
  7
Standard
140
4.5
170
     2
 62
     0
 63
   257
283
     0
 90
        4
 91
        0
  1

274
    -2
284
     1
 64
     0
275
    -2
285
     1
 65
     0
276
    -2
286
     1
 66
     0
277
    -2
287
     1
 67
     0
278
    -2
288
     1
 68
     0
279
    -2
289
     1
 69
     0
  7
Standard
140
6.0
170
     5
 62
     0
 63
   257
283
     0
 90
        4
 91
        0
  1

274
    -2
284
     1
 64
     0
275
    -2
285
     1
 65
     0
276
    -2
286
     1
 66
     0
277
    -2
287
     1
 67
     0
278
    -2
288
     1
 68
     0
279
    -2
289
     1
 69
     0
  7
Standard
140
4.5
170
     5
 62
     0
 63
   257
283
     0
 90
        4
 91
        0
  1

274
    -2
284
     1
 64
     0
275
    -2
285
     1
 65
     0
276
    -2
286
     1
 66
     0
277
    -2
287
     1
 67
     0
278
    -2
288
     1
 68
     0
279
    -2
289
     1
 69
     0
  0
VISUALSTYLE
  5
2F
102
{ACAD_REACTORS
330
2A
102
}
330
2A
100
AcDbVisualStyle
  2
2dWireframe
 70
     4
177
     2
291
     0
 71
     0
176
     1
 72
     2
176
     1
 73
     0
176
     1
 90
        0
176
     1
 40
-0.6
176
     1
 41
-30.0
176
     1
 62
     5
 63
     7
421
 16777215
176
     1
 74
     1
176
     1
 91
        4
176
     1
 64
     7
176
     1
 65
   257
176
     1
 75
     1
176
     1
175
     1
176
     1
 42
1.0
176
     1
 92
        0
176
     1
 66
   257
176
     1
 43
1.0
176
     1
 76
     1
176
     1
 77
     6
176
     1
 78
     2
176
     1
 67
     7
176
     1
 79
     5
176
     1
170
     0
176
     1
171
     0
176
     1
290
     0
176
     1
 93
        1
176
     1
 44
0.0
176
     1
173
     0
176
     1
  0
VISUALSTYLE
  5
31
102
{ACAD_REACTORS
330
2A
102
}
330
2A
100
AcDbVisualStyle
  2
3D Hidden
 70
     6
177
     2
291
     0
 71
     1
176
     1
 72
     2
176
     1
 73
     2
176
     1
 90
        0
176
     1
 40
-0.6
176
     1
 41
-30.0
176
     1
 62
     5
 63
     7
421
 16777215
176
     1
 74
     2
176
     1
 91
        2
176
     1
 64
     7
176
     1
 65
   257
176
     1
 75
     2
176
     1
175
     1
176
     1
 42
40.0
176
     1
 92
        0
176
     1
 66
   257
176
     1
 43
1.0
176
     1
 76
     1
176
     1
 77
     6
176
     1
 78
     2
176
     1
 67
     7
176
     1
 79
     3
176
     1
170
     0
176
     1
171
     0
176
     1
290
     0
176
     1
 93
        1
176
     1
 44
0.0
176
     1
173
     0
176
     1
  0
VISUALSTYLE
  5
30
102
{ACAD_REACTORS
330
2A
102
}
330
2A
100
AcDbVisualStyle
  2
3dWireframe
 70
     5
177
     2
291
     0
 71
     0
176
     1
 72
     2
176
     1
 73
     0
176
     1
 90
        0
176
     1
 40
-0.6
176
     1
 41
-30.0
176
     1
 62
     5
 63
     7
421
 16777215
176
     1
 74
     1
176
     1
 91
        4
176
     1
 64
     7
176
     1
 65
   257
176
     1
 75
     1
176
     1
175
     1
176
     1
 42
1.0
176
     1
 92
        0
176
     1
 66
   257
176
     1
 43
1.0
176
     1
 76
     1
176
     1
 77
     6
176
     1
 78
     2
176
     1
 67
     7
176
     1
 79
     5
176
     1
170
     0
176
     1
171
     0
176
     1
290
     0
176
     1
 93
        1
176
     1
 44
0.0
176
     1
173
     0
176
     1
  0
VISUALSTYLE
  5
32
102
{ACAD_REACTORS
330
2A
102
}
330
2A
100
AcDbVisualStyle
  2
Basic
 70
     7
177
     2
291
     1
 71
     1
176
     1
 72
     0
176
     1
 73
     1
176
     1
 90
        0
176
     1
 40
-0.6
176
     1
 41
-30.0
176
     1
 62
     5
 63
     7
421
 16777215
176
     1
 74
     0
176
     1
 91
        4
176
     1
 64
     7
176
     1
 65
   257
176
     1
 75
     1
176
     1
175
     1
176
     1
 42
1.0
176
     1
 92
        8
176
     1
 66
     7
176
     1
 43
1.0
176
     1
 76
     1
176
     1
 77
     6
176
     1
 78
     2
176
     1
 67
     7
176
     1
 79
     5
176
     1
170
     0
176
     1
171
     0
176
     1
290
     0
176
     1
 93
        1
176
     1
 44
0.0
176
     1
173
     0
176
     1
  0
VISUALSTYLE
  5
36
102
{ACAD_REACTORS
330
2A
102
}
330
2A
100
AcDbVisualStyle
  2
Brighten
 70
    12
177
     2
291
     1
 71
     2
176
     1
 72
     2
176
     1
 73
     0
176
     1
 90
        0
176
     1
 40
-0.6
176
     1
 41
-30.0
176
     1
 62
     5
 63
     7
421
 16777215
176
     1
 74
     1
176
     1
 91
        4
176
     1
 64
     7
176
     1
 65
   257
176
     1
 75
     1
176
     1
175
     1
176
     1
 42
1.0
176
     1
 92
        8
176
     1
 66
     7
176
     1
 43
1.0
176
     1
 76
     1
176
     1
 77
     6
176
     1
 78
     2
176
     1
 67
     7
176
     1
 79
     5
176
     1
170
     0
176
     1
171
     0
176
     1
290
     0
176
     1
 93
        1
176
     1
 44
50.0
176
     1
173
     0
176
     1
  0
VISUALSTYLE
  5
3A
102
{ACAD_REACTORS
330
2A
102
}
330
2A
100
AcDbVisualStyle
  2
ColorChange
 70
    16
177
     2
291
     1
 71
     2
176
     1
 72
     2
176
     1
 73
     3
176
     1
 90
        0
176
     1
 40
-0.6
176
     1
 41
-30.0
176
     1
 62
     5
 63
     8
421
  8421504
176
     1
 74
     1
176
     1
 91
        4
176
     1
 64
     7
176
     1
 65
   257
176
     1
 75
     1
176
     1
175
     1
176
     1
 42
1.0
176
     1
 92
        8
176
     1
 66
     8
424
  8421504
176
     1
 43
1.0
176
     1
 76
     1
176
     1
 77
     6
176
     1
 78
     2
176
     1
 67
     7
176
     1
 79
     5
176
     1
170
     0
176
     1
171
     0
176
     1
290
     0
176
     1
 93
        1
176
     1
 44
0.0
176
     1
173
     0
176
     1
  0
VISUALSTYLE
  5
34
102
{ACAD_REACTORS
330
2A
102
}
330
2A
100
AcDbVisualStyle
  2
Conceptual
 70
     9
177
     2
291
     0
 71
     3
176
     1
 72
     2
176
     1
 73
     0
176
     1
 90
        0
176
     1
 40
-0.6
176
     1
 41
-30.0
176
     1
 62
     5
 63
     7
421
 16777215
176
     1
 74
     2
176
     1
 91
        2
176
     1
 64
     7
176
     1
 65
   257
176
     1
 75
     1
176
     1
175
     1
176
     1
 42
40.0
176
     1
 92
        8
176
     1
 66
     7
176
     1
 43
1.0
176
     1
 76
     1
176
     1
 77
     6
176
     1
 78
     2
176
     1
 67
     7
176
     1
 79
     3
176
     1
170
     0
176
     1
171
     0
176
     1
290
     0
176
     1
 93
        1
176
     1
 44
0.0
176
     1
173
     0
176
     1
  0
VISUALSTYLE
  5
35
102
{ACAD_REACTORS
330
2A
102
}
330
2A
100
AcDbVisualStyle
  2
Dim
 70
    11
177
     2
291
     1
 71
     2
176
     1
 72
     2
176
     1
 73
     0
176
     1
 90
        0
176
     1
 40
-0.6
176
     1
 41
-30.0
176
     1
 62
     5
 63
     7
421
 16777215
176
     1
 74
     1
176
     1
 91
        4
176
     1
 64
     7
176
     1
 65
   257
176
     1
 75
     1
176
     1
175
     1
176
     1
 42
1.0
176
     1
 92
        8
176
     1
 66
     7
176
     1
 43
1.0
176
     1
 76
     1
176
     1
 77
     6
176
     1
 78
     2
176
     1
 67
     7
176
     1
 79
     5
176
     1
170
     0
176
     1
171
     0
176
     1
290
     0
176
     1
 93
        1
176
     1
 44
-50.0
176
     1
173
     0
176
     1
  0
VISUALSTYLE
  5
20B
102
{ACAD_REACTORS
330
2A
102
}
330
2A
100
AcDbVisualStyle
  2
EdgeColorOff
 70
    22
177
     2
291
     1
 71
     2
176
     0
 72
     2
176
     0
 73
     0
176
     0
 90
        0
176
     0
 40
0.6
176
     0
 41
30.0
176
     0
 62
     5
 63
     7
421
 16777215
176
     0
 74
     1
176
     0
 91
        4
176
     0
 64
     7
176
     0
 65
   257
176
     0
 75
     1
176
     0
175
     1
176
     0
 42
1.0
176
     0
 92
        8
176
     2
 66
     7
176
     0
 43
1.0
176
     0
 76
     1
176
     0
 77
     6
176
     0
 78
     2
176
     0
 67
     7
176
     0
 79
     5
176
     0
170
     0
176
     0
171
     0
176
     0
290
     0
176
     0
 93
        1
176
     0
 44
0.0
176
     0
173
     0
176
     0
  0
VISUALSTYLE
  5
39
102
{ACAD_REACTORS
330
2A
102
}
330
2A
100
AcDbVisualStyle
  2
Facepattern
 70
    15
177
     2
291
     1
 71
     2
176
     1
 72
     2
176
     1
 73
     0
176
     1
 90
        0
176
     1
 40
-0.6
176
     1
 41
-30.0
176
     1
 62
     5
 63
     7
421
 16777215
176
     1
 74
     1
176
     1
 91
        4
176
     1
 64
     7
176
     1
 65
   257
176
     1
 75
     1
176
     1
175
     1
176
     1
 42
1.0
176
     1
 92
        8
176
     1
 66
     7
176
     1
 43
1.0
176
     1
 76
     1
176
     1
 77
     6
176
     1
 78
     2
176
     1
 67
     7
176
     1
 79
     5
176
     1
170
     0
176
     1
171
     0
176
     1
290
     0
176
     1
 93
        1
176
     1
 44
0.0
176
     1
173
     0
176
     1
  0
VISUALSTYLE
  5
2B
102
{ACAD_REACTORS
330
2A
102
}
330
2A
100
AcDbVisualStyle
  2
Flat
 70
     0
177
     2
291
     1
 71
     2
176
     1
 72
     1
176
     1
 73
     1
176
     1
 90
        2
176
     1
 40
-0.6
176
     1
 41
30.0
176
     1
 62
     5
 63
     7
421
 16777215
176
     1
 74
     0
176
     1
 91
        4
176
     1
 64
     7
176
     1
 65
   257
176
     1
 75
     1
176
     1
175
     1
176
     1
 42
1.0
176
     1
 92
        8
176
     1
 66
     7
176
     1
 43
1.0
176
     1
 76
     1
176
     1
 77
     6
176
     1
 78
     2
176
     1
 67
     7
176
     1
 79
     5
176
     1
170
     0
176
     1
171
     0
176
     1
290
     0
176
     1
 93
       13
176
     1
 44
0.0
176
     1
173
     0
176
     1
  0
VISUALSTYLE
  5
2C
102
{ACAD_REACTORS
330
2A
102
}
330
2A
100
AcDbVisualStyle
  2
FlatWithEdges
 70
     1
177
     2
291
     1
 71
     2
176
     1
 72
     1
176
     1
 73
     1
176
     1
 90
        2
176
     1
 40
-0.6
176
     1
 41
30.0
176
     1
 62
     5
 63
     7
421
 16777215
176
     1
 74
     1
176
     1
 91
        4
176
     1
 64
     7
176
     1
 65
   257
176
     1
 75
     1
176
     1
175
     1
176
     1
 42
1.0
176
     1
 92
        0
176
     1
 66
   257
176
     1
 43
1.0
176
     1
 76
     1
176
     1
 77
     6
176
     1
 78
     2
176
     1
 67
     7
176
     1
 79
     5
176
     1
170
     0
176
     1
171
     0
176
     1
290
     0
176
     1
 93
       13
176
     1
 44
0.0
176
     1
173
     0
176
     1
  0
VISUALSTYLE
  5
2D
102
{ACAD_REACTORS
330
2A
102
}
330
2A
100
AcDbVisualStyle
  2
Gouraud
 70
     2
177
     2
291
     1
 71
     2
176
     1
 72
     2
176
     1
 73
     1
176
     1
 90
        2
176
     1
 40
-0.6
176
     1
 41
30.0
176
     1
 62
     5
 63
     7
421
 16777215
176
     1
 74
     0
176
     1
 91
        4
176
     1
 64
     7
176
     1
 65
   257
176
     1
 75
     1
176
     1
175
     1
176
     1
 42
1.0
176
     1
 92
        0
176
     1
 66
     7
176
     1
 43
1.0
176
     1
 76
     1
176
     1
 77
     6
176
     1
 78
     2
176
     1
 67
     7
176
     1
 79
     5
176
     1
170
     0
176
     1
171
     0
176
     1
290
     0
176
     1
 93
       13
176
     1
 44
0.0
176
     1
173
     0
176
     1
  0
VISUALSTYLE
  5
2E
102
{ACAD_REACTORS
330
2A
102
}
330
2A
100
AcDbVisualStyle
  2
GouraudWithEdges
 70
     3
177
     2
291
     1
 71
     2
176
     1
 72
     2
176
     1
 73
     1
176
     1
 90
        2
176
     1
 40
-0.6
176
     1
 41
30.0
176
     1
 62
     5
 63
     7
421
 16777215
176
     1
 74
     1
176
     1
 91
        4
176
     1
 64
     7
176
     1
 65
   257
176
     1
 75
     1
176
     1
175
     1
176
     1
 42
1.0
176
     1
 92
        0
176
     1
 66
   257
176
     1
 43
1.0
176
     1
 76
     1
176
     1
 77
     6
176
     1
 78
     2
176
     1
 67
     7
176
     1
 79
     5
176
     1
170
     0
176
     1
171
     0
176
     1
290
     0
176
     1
 93
       13
176
     1
 44
0.0
176
     1
173
     0
176
     1
  0
VISUALSTYLE
  5
208
102
{ACAD_REACTORS
330
2A
102
}
330
2A
100
AcDbVisualStyle
  2
Hidden
 70
     6
177
     2
291
     0
 71
     1
176
     1
 72
     2
176
     1
 73
     2
176
     1
 90
        0
176
     1
 40
0.6
176
     1
 41
30.0
176
     1
 62
     5
 63
     7
421
 16777215
176
     1
 74
     2
176
     1
 91
        2
176
     1
 64
     7
176
     1
 65
   257
176
     1
 75
     2
176
     1
175
     1
176
     1
 42
40.0
176
     1
 92
        0
176
     1
 66
   257
176
     1
 43
1.0
176
     1
 76
     1
176
     1
 77
     6
176
     1
 78
     2
176
     1
 67
     7
176
     1
 79
     3
176
     1
170
     0
176
     1
171
     0
176
     1
290
     0
176
     1
 93
        1
176
     1
 44
0.0
176
     1
173
     0
176
     1
  0
VISUALSTYLE
  5
209
102
{ACAD_REACTORS
330
2A
102
}
330
2A
100
AcDbVisualStyle
  2
JitterOff
 70
    20
177
     2
291
     1
 71
     2
176
     0
 72
     2
176
     0
 73
     0
176
     0
 90
        0
176
     0
 40
0.6
176
     0
 41
30.0
176
     0
 62
     5
 63
     7
421
 16777215
176
     0
 74
     1
176
     0
 91
        4
176
     0
 64
     7
176
     0
 65
   257
176
     0
 75
     1
176
     0
175
     1
176
     0
 42
1.0
176
     0
 92
       10
176
     2
 66
     7
176
     0
 43
1.0
176
     0
 76
     1
176
     0
 77
     6
176
     0
 78
     2
176
     0
 67
     7
176
     0
 79
     5
176
     0
170
     0
176
     0
171
     0
176
     0
290
     0
176
     0
 93
        1
176
     0
 44
0.0
176
     0
173
     0
176
     0
  0
VISUALSTYLE
  5
38
102
{ACAD_REACTORS
330
2A
102
}
330
2A
100
AcDbVisualStyle
  2
Linepattern
 70
    14
177
     2
291
     1
 71
     2
176
     1
 72
     2
176
     1
 73
     0
176
     1
 90
        0
176
     1
 40
-0.6
176
     1
 41
-30.0
176
     1
 62
     5
 63
     7
421
 16777215
176
     1
 74
     1
176
     1
 91
        4
176
     1
 64
     7
176
     1
 65
   257
176
     1
 75
     7
176
     1
175
     7
176
     1
 42
1.0
176
     1
 92
        8
176
     1
 66
     7
176
     1
 43
1.0
176
     1
 76
     1
176
     1
 77
     6
176
     1
 78
     2
176
     1
 67
     7
176
     1
 79
     5
176
     1
170
     0
176
     1
171
     0
176
     1
290
     0
176
     1
 93
        1
176
     1
 44
0.0
176
     1
173
     0
176
     1
  0
VISUALSTYLE
  5
20A
102
{ACAD_REACTORS
330
2A
102
}
330
2A
100
AcDbVisualStyle
  2
OverhangOff
 70
    21
177
     2
291
     1
 71
     2
176
     0
 72
     2
176
     0
 73
     0
176
     0
 90
        0
176
     0
 40
0.6
176
     0
 41
30.0
176
     0
 62
     5
 63
     7
421
 16777215
176
     0
 74
     1
176
     0
 91
        4
176
     0
 64
     7
176
     0
 65
   257
176
     0
 75
     1
176
     0
175
     1
176
     0
 42
1.0
176
     0
 92
        9
176
     2
 66
     7
176
     0
 43
1.0
176
     0
 76
     1
176
     0
 77
     6
176
     0
 78
     2
176
     0
 67
     7
176
     0
 79
     5
176
     0
170
     0
176
     0
171
     0
176
     0
290
     0
176
     0
 93
        1
176
     0
 44
0.0
176
     0
173
     0
176
     0
  0
VISUALSTYLE
  5
33
102
{ACAD_REACTORS
330
2A
102
}
330
2A
100
AcDbVisualStyle
  2
Realistic
 70
     8
177
     2
291
     0
 71
     2
176
     1
 72
     2
176
     1
 73
     0
176
     1
 90
        0
176
     1
 40
-0.6
176
     1
 41
-30.0
176
     1
 62
     5
 63
     7
421
 16777215
176
     1
 74
     1
176
     1
 91
        0
176
     1
 64
     7
176
     1
 65
   257
176
     1
 75
     1
176
     1
175
     1
176
     1
 42
1.0
176
     1
 92
        8
176
     1
 66
     8
424
  7895160
176
     1
 43
1.0
176
     1
 76
     1
176
     1
 77
     6
176
     1
 78
     2
176
     1
 67
     7
176
     1
 79
     5
176
     1
170
     0
176
     1
171
     0
176
     1
290
     0
176
     1
 93
       13
176
     1
 44
0.0
176
     1
173
     0
176
     1
  0
VISUALSTYLE
  5
210
102
{ACAD_REACTORS
330
2A
102
}
330
2A
100
AcDbVisualStyle
  2
Shaded
 70
    27
177
     2
291
     0
 71
     2
176
     1
 72
     2
176
     1
 73
     1
176
     1
 90
        2
176
     1
 40
0.6
176
     1
 41
30.0
176
     1
 62
     5
 63
     7
421
 16777215
176
     1
 74
     0
176
     1
 91
        4
176
     1
 64
     7
176
     1
 65
   257
176
     1
 75
     1
176
     1
175
     1
176
     1
 42
1.0
176
     1
 92
        8
176
     1
 66
   257
176
     1
 43
1.0
176
     1
 76
     1
176
     1
 77
     6
176
     1
 78
     2
176
     1
 67
     8
425
  7895160
176
     1
 79
     3
176
     1
170
     0
176
     1
171
     0
176
     1
290
     0
176
     1
 93
        5
176
     1
 44
0.0
176
     1
173
     0
176
     1
  0
VISUALSTYLE
  5
20F
102
{ACAD_REACTORS
330
2A
102
}
330
2A
100
AcDbVisualStyle
  2
Shaded with edges
 70
    26
177
     2
291
     0
 71
     2
176
     1
 72
     2
176
     1
 73
     1
176
     1
 90
        2
176
     1
 40
0.6
176
     1
 41
30.0
176
     1
 62
     5
 63
     7
421
 16777215
176
     1
 74
     1
176
     1
 91
       10
176
     1
 64
     7
176
     1
 65
   257
176
     1
 75
     2
176
     1
175
     1
176
     1
 42
1.0
176
     1
 92
        8
176
     1
 66
   257
176
     1
 43
1.0
176
     1
 76
     1
176
     1
 77
     6
176
     1
 78
     2
176
     1
 67
     7
176
     1
 79
     3
176
     1
170
     0
176
     1
171
     0
176
     1
290
     0
176
     1
 93
        5
176
     1
 44
0.0
176
     1
173
     0
176
     1
  0
VISUALSTYLE
  5
20C
102
{ACAD_REACTORS
330
2A
102
}
330
2A
100
AcDbVisualStyle
  2
Shades of Gray
 70
    23
177
     2
291
     0
 71
     2
176
     1
 72
     2
176
     1
 73
     3
176
     1
 90
        0
176
     1
 40
0.6
176
     1
 41
30.0
176
     1
 62
     5
 63
     7
421
 16777215
176
     1
 74
     2
176
     1
 91
        2
176
     1
 64
     7
176
     1
 65
     7
176
     1
 75
     1
176
     1
175
     1
176
     1
 42
40.0
176
     1
 92
        8
176
     1
 66
     7
176
     1
 43
1.0
176
     1
 76
     1
176
     1
 77
     6
176
     1
 78
     2
176
     1
 67
     7
176
     1
 79
     3
176
     1
170
     0
176
     1
171
     0
176
     1
290
     0
176
     1
 93
        1
176
     1
 44
0.0
176
     1
173
     0
176
     1
  0
VISUALSTYLE
  5
20D
102
{ACAD_REACTORS
330
2A
102
}
330
2A
100
AcDbVisualStyle
  2
Sketchy
 70
    24
177
     2
291
     0
 71
     1
176
     1
 72
     2
176
     1
 73
     2
176
     1
 90
        0
176
     1
 40
0.6
176
     1
 41
30.0
176
     1
 62
     5
 63
     7
421
 16777215
176
     1
 74
     2
176
     1
 91
        2
176
     1
 64
     7
176
     1
 65
     7
176
     1
 75
     1
176
     1
175
     1
176
     1
 42
40.0
176
     1
 92
       11
176
     1
 66
     7
176
     1
 43
1.0
176
     1
 76
     1
176
     1
 77
     6
176
     1
 78
     2
176
     1
 67
     7
176
     1
 79
     6
176
     1
170
     0
176
     1
171
     0
176
     1
290
     0
176
     1
 93
        1
176
     1
 44
0.0
176
     1
173
     0
176
     1
  0
VISUALSTYLE
  5
37
102
{ACAD_REACTORS
330
2A
102
}
330
2A
100
AcDbVisualStyle
  2
Thicken
 70
    13
177
     2
291
     1
 71
     2
176
     1
 72
     2
176
     1
 73
     0
176
     1
 90
        0
176
     1
 40
-0.6
176
     1
 41
-30.0
176
     1
 62
     5
 63
     7
421
 16777215
176
     1
 74
     1
176
     1
 91
        4
176
     1
 64
     7
176
     1
 65
   257
176
     1
 75
     1
176
     1
175
     1
176
     1
 42
1.0
176
     1
 92
       12
176
     1
 66
     7
176
     1
 43
1.0
176
     1
 76
     1
176
     1
 77
     6
176
     1
 78
     2
176
     1
 67
     7
176
     1
 79
     5
176
     1
170
     0
176
     1
171
     0
176
     1
290
     0
176
     1
 93
        1
176
     1
 44
0.0
176
     1
173
     0
176
     1
  0
VISUALSTYLE
  5
207
102
{ACAD_REACTORS
330
2A
102
}
330
2A
100
AcDbVisualStyle
  2
Wireframe
 70
     5
177
     2
291
     0
 71
     0
176
     1
 72
     2
176
     1
 73
     0
176
     1
 90
        0
176
     1
 40
0.6
176
     1
 41
30.0
176
     1
 62
     5
 63
     7
421
 16777215
176
     1
 74
     1
176
     1
 91
        4
176
     1
 64
     7
176
     1
 65
   257
176
     1
 75
     1
176
     1
175
     1
176
     1
 42
1.0
176
     1
 92
        0
176
     1
 66
   257
176
     1
 43
1.0
176
     1
 76
     1
176
     1
 77
     6
176
     1
 78
     2
176
     1
 67
     7
176
     1
 79
     3
176
     1
170
     0
176
     1
171
     0
176
     1
290
     0
176
     1
 93
        1
176
     1
 44
0.0
176
     1
173
     0
176
     1
  0
VISUALSTYLE
  5
20E
102
{ACAD_REACTORS
330
2A
102
}
330
2A
100
AcDbVisualStyle
  2
X-Ray
 70
    25
177
     2
291
     0
 71
     2
176
     1
 72
     2
176
     1
 73
     1
176
     1
 90
        1
176
     1
 40
0.5
176
     1
 41
30.0
176
     1
 62
     5
 63
     7
421
 16777215
176
     1
 74
     1
176
     1
 91
        0
176
     1
 64
     7
176
     1
 65
   257
176
     1
 75
     1
176
     1
175
     1
176
     1
 42
1.0
176
     1
 92
        8
176
     1
 66
     7
176
     1
 43
1.0
176
     1
 76
     1
176
     1
 77
     6
176
     1
 78
     2
176
     1
 67
     7
176
     1
 79
     3
176
     1
170
     0
176
     1
171
     0
176
     1
290
     0
176
     1
 93
       13
176
     1
 44
0.0
176
     1
173
     0
176
     1
  0
DICTIONARYVAR
  5
204
102
{ACAD_REACTORS
330
203
102
}
330
203
100
DictionaryVariables
280
     0
  1
1:1
  0
DICTIONARYVAR
  5
2D1
102
{ACAD_REACTORS
330
203
102
}
330
203
100
DictionaryVariables
280
     0
  1
Standard
  0
DICTIONARYVAR
  5
2D0
102
{ACAD_REACTORS
330
203
102
}
330
203
100
DictionaryVariables
280
     0
  1
Standard
  0
DICTIONARY
  5
373
330
211
100
AcDbDictionary
280
     1
281
     1
  3
ACAD_ROUNDTRIP_2008_TABLESTYLE_CELLSTYLEMAP
360
374
  0
CELLSTYLEMAP
  5
374
102
{ACAD_REACTORS
330
373
102
}
330
373
100
AcDbCellStyleMap
 90
        3
300
CELLSTYLE
  1
TABLEFORMAT_BEGIN
 90
        5
170
     1
 91
        0
 92
    32768
 62
   257
 93
        1
300
CONTENTFORMAT
  1
CONTENTFORMAT_BEGIN
 90
        0
 91
        0
 92
        4
 93
        0
300

 40
0.0
140
1.0
 94
        5
 62
     0
340
11
144
6.0
309
CONTENTFORMAT_END
171
     1
301
MARGIN
  1
CELLMARGIN_BEGIN
 40
1.5
 40
1.5
 40
1.5
 40
1.5
 40
1.5
 40
1.5
309
CELLMARGIN_END
 94
        6
 95
        1
302
GRIDFORMAT
  1
GRIDFORMAT_BEGIN
 90
        0
 91
        1
 62
     0
 92
       -2
340
14
 93
        0
 40
0.045
309
GRIDFORMAT_END
 95
        2
302
GRIDFORMAT
  1
GRIDFORMAT_BEGIN
 90
        0
 91
        1
 62
     0
 92
       -2
340
14
 93
        0
 40
0.045
309
GRIDFORMAT_END
 95
        4
302
GRIDFORMAT
  1
GRIDFORMAT_BEGIN
 90
        0
 91
        1
 62
     0
 92
       -2
340
14
 93
        0
 40
0.045
309
GRIDFORMAT_END
 95
        8
302
GRIDFORMAT
  1
GRIDFORMAT_BEGIN
 90
        0
 91
        1
 62
     0
 92
       -2
340
14
 93
        0
 40
0.045
309
GRIDFORMAT_END
 95
       16
302
GRIDFORMAT
  1
GRIDFORMAT_BEGIN
 90
        0
 91
        1
 62
     0
 92
       -2
340
14
 93
        0
 40
0.045
309
GRIDFORMAT_END
 95
       32
302
GRIDFORMAT
  1
GRIDFORMAT_BEGIN
 90
        0
 91
        1
 62
     0
 92
       -2
340
14
 93
        0
 40
0.045
309
GRIDFORMAT_END
309
TABLEFORMAT_END
  1
CELLSTYLE_BEGIN
 90
        1
 91
        1
300
_TITLE
309
CELLSTYLE_END
300
CELLSTYLE
  1
TABLEFORMAT_BEGIN
 90
        5
170
     1
 91
        0
 92
        0
 62
   257
 93
        1
300
CONTENTFORMAT
  1
CONTENTFORMAT_BEGIN
 90
        0
 91
        0
 92
        4
 93
        0
300

 40
0.0
140
1.0
 94
        5
 62
     0
340
11
144
4.5
309
CONTENTFORMAT_END
171
     1
301
MARGIN
  1
CELLMARGIN_BEGIN
 40
1.5
 40
1.5
 40
1.5
 40
1.5
 40
1.5
 40
1.5
309
CELLMARGIN_END
 94
        6
 95
        1
302
GRIDFORMAT
  1
GRIDFORMAT_BEGIN
 90
        0
 91
        1
 62
     0
 92
       -2
340
14
 93
        0
 40
0.045
309
GRIDFORMAT_END
 95
        2
302
GRIDFORMAT
  1
GRIDFORMAT_BEGIN
 90
        0
 91
        1
 62
     0
 92
       -2
340
14
 93
        0
 40
0.045
309
GRIDFORMAT_END
 95
        4
302
GRIDFORMAT
  1
GRIDFORMAT_BEGIN
 90
        0
 91
        1
 62
     0
 92
       -2
340
14
 93
        0
 40
0.045
309
GRIDFORMAT_END
 95
        8
302
GRIDFORMAT
  1
GRIDFORMAT_BEGIN
 90
        0
 91
        1
 62
     0
 92
       -2
340
14
 93
        0
 40
0.045
309
GRIDFORMAT_END
 95
       16
302
GRIDFORMAT
  1
GRIDFORMAT_BEGIN
 90
        0
 91
        1
 62
     0
 92
       -2
340
14
 93
        0
 40
0.045
309
GRIDFORMAT_END
 95
       32
302
GRIDFORMAT
  1
GRIDFORMAT_BEGIN
 90
        0
 91
        1
 62
     0
 92
       -2
340
14
 93
        0
 40
0.045
309
GRIDFORMAT_END
309
TABLEFORMAT_END
  1
CELLSTYLE_BEGIN
 90
        2
 91
        1
300
_HEADER
309
CELLSTYLE_END
300
CELLSTYLE
  1
TABLEFORMAT_BEGIN
 90
        5
170
     1
 91
        0
 92
        0
 62
   257
 93
        1
300
CONTENTFORMAT
  1
CONTENTFORMAT_BEGIN
 90
        0
 91
        0
 92
        4
 93
        0
300

 40
0.0
140
1.0
 94
        2
 62
     0
340
11
144
4.5
309
CONTENTFORMAT_END
171
     1
301
MARGIN
  1
CELLMARGIN_BEGIN
 40
1.5
 40
1.5
 40
1.5
 40
1.5
 40
1.5
 40
1.5
309
CELLMARGIN_END
 94
        6
 95
        1
302
GRIDFORMAT
  1
GRIDFORMAT_BEGIN
 90
        0
 91
        1
 62
     0
 92
       -2
340
14
 93
        0
 40
0.045
309
GRIDFORMAT_END
 95
        2
302
GRIDFORMAT
  1
GRIDFORMAT_BEGIN
 90
        0
 91
        1
 62
     0
 92
       -2
340
14
 93
        0
 40
0.045
309
GRIDFORMAT_END
 95
        4
302
GRIDFORMAT
  1
GRIDFORMAT_BEGIN
 90
        0
 91
        1
 62
     0
 92
       -2
340
14
 93
        0
 40
0.045
309
GRIDFORMAT_END
 95
        8
302
GRIDFORMAT
  1
GRIDFORMAT_BEGIN
 90
        0
 91
        1
 62
     0
 92
       -2
340
14
 93
        0
 40
0.045
309
GRIDFORMAT_END
 95
       16
302
GRIDFORMAT
  1
GRIDFORMAT_BEGIN
 90
        0
 91
        1
 62
     0
 92
       -2
340
14
 93
        0
 40
0.045
309
GRIDFORMAT_END
 95
       32
302
GRIDFORMAT
  1
GRIDFORMAT_BEGIN
 90
        0
 91
        1
 62
     0
 92
       -2
340
14
 93
        0
 40
0.045
309
GRIDFORMAT_END
309
TABLEFORMAT_END
  1
CELLSTYLE_BEGIN
 90
        3
 91
        2
300
_DATA
309
CELLSTYLE_END
  0
ENDSEC
  0
EOF
